<?xml version="1.0" encoding="UTF-8"?>
<svg version="1.1" xmlns="http://www.w3.org/2000/svg" width="2101" height="2049">
<path d="M0 0 C2.41187174 -0.0016509 4.82374321 -0.00373775 7.23561424 -0.0062201 C12.48820501 -0.01061791 17.74078716 -0.01192265 22.99337918 -0.01049176 C30.85694931 -0.00836539 38.72050975 -0.01199135 46.58407839 -0.01670653 C59.98800905 -0.02457041 73.39193704 -0.0276681 86.79586983 -0.02815247 C100.37826225 -0.0286551 113.96065169 -0.03130456 127.54304314 -0.03656006 C128.40120052 -0.03689019 129.25935789 -0.03722033 130.14352004 -0.03756046 C133.63874369 -0.03891049 137.13396734 -0.04027315 140.62919098 -0.04165257 C181.99724061 -0.05794967 223.36528967 -0.06434064 264.73334196 -0.06910044 C285.33671308 -0.0714844 305.94008387 -0.07518804 326.54345474 -0.07913754 C392.64824374 -0.09180204 458.75303272 -0.10258553 524.85782291 -0.10597799 C528.0169096 -0.10614023 531.1759963 -0.10630579 534.33508299 -0.10647238 C540.67057624 -0.10680617 547.00606949 -0.10713665 553.34156275 -0.10746694 C560.75872886 -0.10785383 568.17589497 -0.10824344 575.59306108 -0.108638 C577.71590635 -0.10875042 579.83875162 -0.10886184 581.96159689 -0.10897225 C650.12386363 -0.11252084 718.28611983 -0.12759575 786.44838255 -0.15091 C835.43091501 -0.16765722 884.41344548 -0.18312905 933.39598083 -0.18764496 C934.90779779 -0.18778519 934.90779779 -0.18778519 936.4501565 -0.18792825 C958.57843327 -0.18994755 980.70671001 -0.19110338 1002.83498688 -0.19145683 C1010.75356038 -0.191593 1018.67213389 -0.19180199 1026.5907074 -0.19205009 C1028.56059563 -0.19211165 1030.53048387 -0.19216997 1032.50037211 -0.19222504 C1063.85828769 -0.19314394 1095.21619225 -0.20310116 1126.57410421 -0.21768252 C1158.1716672 -0.23231649 1189.76921667 -0.23732924 1221.36678244 -0.22926298 C1225.73972081 -0.22814771 1230.1126592 -0.22713702 1234.48559761 -0.22618866 C1235.34275887 -0.22599869 1236.19992012 -0.22580872 1237.08305596 -0.225613 C1250.61810763 -0.22288661 1264.1531342 -0.23019794 1277.68818041 -0.24176203 C1291.0196364 -0.25294104 1304.35105714 -0.25329604 1317.68251372 -0.24239184 C1325.48312893 -0.23632922 1333.28363734 -0.23829901 1341.08424232 -0.25264382 C1346.9008013 -0.26240515 1352.71726182 -0.25622336 1358.53381265 -0.24423349 C1360.85357066 -0.24182268 1363.17334107 -0.24430006 1365.49308538 -0.25262997 C1424.45525125 -0.45022412 1482.4820766 14.66631831 1534.56552887 42.13142776 C1535.31834137 42.52378616 1536.07115387 42.91614456 1536.84677887 43.32039261 C1564.32178651 57.71020485 1589.16648455 75.98209751 1612.05381012 96.84236526 C1613.81066354 98.44347896 1615.57999038 100.03096426 1617.35849762 101.60799026 C1629.14762984 112.16681674 1639.71753175 123.74864182 1649.56552887 136.13142776 C1650.44757506 137.18914564 1651.33180944 138.24504143 1652.21787262 139.29939651 C1670.51032246 161.27908428 1685.35852526 186.31641713 1697.56552887 212.13142776 C1697.9167984 212.86587112 1698.26806793 213.60031448 1698.62998199 214.3570137 C1716.35245563 251.63047015 1727.12944179 292.13359119 1731.56552887 333.13142776 C1731.65368962 333.89519039 1731.74185037 334.65895302 1731.83268265 335.44585996 C1732.90878569 346.19075375 1732.70629566 356.97116702 1732.69695663 367.75658894 C1732.69860767 370.08008106 1732.70069458 372.4035729 1732.70317674 374.72706428 C1732.70815178 380.45128572 1732.70849531 386.17549436 1732.70688772 391.89971742 C1732.70521181 398.80761321 1732.70936298 405.71550256 1732.71366317 412.62339678 C1732.72152596 425.53283322 1732.72462468 438.4422669 1732.7251091 451.35170555 C1732.72561178 464.43259185 1732.72826164 477.51347507 1732.73351669 490.59436035 C1732.73384683 491.42090129 1732.73417696 492.24744222 1732.7345171 493.09902985 C1732.73586712 496.46549331 1732.73722979 499.83195676 1732.7386092 503.1984202 C1732.75490519 543.03989817 1732.76129712 582.88137553 1732.76605707 622.72285626 C1732.76844113 642.56601599 1732.77214478 662.40917538 1732.77609417 682.25233485 C1732.78875852 745.91895504 1732.79954207 809.58557522 1732.80293463 873.25219665 C1732.80309687 876.29467657 1732.80326243 879.33715649 1732.80342901 882.37963641 C1732.80376281 888.48126851 1732.80409329 894.5829006 1732.80442357 900.6845327 C1732.80481047 907.82789773 1732.80520007 914.97126275 1732.80559463 922.11462778 C1732.80570705 924.15910854 1732.80581847 926.20358931 1732.80592889 928.24807008 C1732.80947753 993.89512327 1732.82455275 1059.54216551 1732.84786663 1125.18921452 C1732.86461388 1172.36507849 1732.88008568 1219.54094039 1732.88460159 1266.71680737 C1732.88474182 1268.1728618 1732.88474182 1268.1728618 1732.88488488 1269.65833147 C1732.88690418 1290.9704062 1732.88806002 1312.28248089 1732.88841347 1333.59455571 C1732.88854964 1341.22104154 1732.88875863 1348.84752736 1732.88900672 1356.47401318 C1732.88906828 1358.37123724 1732.8891266 1360.26846129 1732.88918167 1362.16568535 C1732.89010056 1392.36659244 1732.90005766 1422.56748809 1732.91463916 1452.76839142 C1732.92927314 1483.19986258 1732.93428586 1513.63131972 1732.92621962 1544.06279378 C1732.92510435 1548.27435558 1732.92409365 1552.4859174 1732.92314529 1556.69747925 C1732.92295533 1557.52300787 1732.92276536 1558.34853649 1732.92256963 1559.19908114 C1732.91984326 1572.23453609 1732.92715451 1585.26996499 1732.93871866 1598.30541428 C1732.94989777 1611.14483078 1732.95025257 1623.98421069 1732.93934848 1636.8236278 C1732.93381327 1643.68282579 1732.93322368 1650.54192863 1732.9458572 1657.40112013 C1732.95728201 1663.65650275 1732.95457842 1669.91172303 1732.94119012 1676.1671003 C1732.93877937 1678.40120361 1732.94125647 1680.6353198 1732.9495866 1682.86940888 C1733.21535388 1759.24428678 1707.16421531 1835.97766585 1661.56552887 1897.13142776 C1661.13965485 1897.70747757 1660.71378082 1898.28352737 1660.27500153 1898.87703323 C1643.91345199 1920.92844717 1624.8772669 1943.1046505 1603.20224762 1960.04939651 C1600.79917512 1961.94693376 1598.49627282 1963.9284103 1596.19736481 1965.94978714 C1574.55270662 1984.83330349 1549.14611035 1999.33651124 1523.56552887 2012.13142776 C1522.76469879 2012.53844925 1521.96386871 2012.94547073 1521.13877106 2013.3648262 C1469.83976801 2039.35196447 1412.0789403 2049.31584432 1355.03464699 2049.26006222 C1352.64906864 2049.26141027 1350.2634905 2049.26319496 1347.87791276 2049.26537445 C1342.69233214 2049.26910846 1337.50676067 2049.26976373 1332.32117952 2049.26766851 C1324.5580185 2049.2645491 1316.7948666 2049.26721574 1309.03170624 2049.27096722 C1295.7977882 2049.27719142 1282.56387343 2049.27867474 1269.32995415 2049.27754974 C1255.92298083 2049.2764244 1242.51601029 2049.27746247 1229.1090374 2049.28112221 C1228.26147144 2049.28135186 1227.41390548 2049.28158151 1226.5406557 2049.28181813 C1223.08849348 2049.28275979 1219.63633127 2049.28371548 1216.18416907 2049.28468932 C1180.1895954 2049.29482827 1144.19502328 2049.29789511 1108.20044835 2049.29848143 C1104.32719331 2049.29854618 1100.45393827 2049.29861412 1096.58068323 2049.29868484 C1095.61949911 2049.29870184 1094.658315 2049.29871884 1093.66800409 2049.29873636 C1072.35865325 2049.299145 1051.04930271 2049.30133549 1029.73995202 2049.30384068 C1020.96265244 2049.30486905 1012.18535286 2049.30585909 1003.40805328 2049.30685693 C1002.4382039 2049.30696752 1001.46835451 2049.30707811 1000.46911575 2049.30719205 C944.89771819 2049.31351545 889.32632081 2049.31764124 833.75492287 2049.31718349 C831.67562626 2049.31716772 829.59632965 2049.31715198 827.51703305 2049.31713629 C818.12940242 2049.3170629 808.74177179 2049.31697473 799.35414116 2049.3168824 C795.16805086 2049.31684128 790.98196055 2049.31680113 786.79587024 2049.31676109 C784.70065736 2049.31674069 782.60544448 2049.31671967 780.5102316 2049.31669803 C714.26726851 2049.31601789 648.02431077 2049.3233336 581.78134918 2049.33723831 C565.09275629 2049.34073943 548.40416339 2049.34420893 531.71557045 2049.34750271 C530.17412706 2049.34780702 530.17412706 2049.34780702 528.6015434 2049.34811748 C496.91985006 2049.35433422 465.23815716 2049.35809838 433.55646324 2049.35936069 C432.56151283 2049.35940065 431.56656242 2049.3594406 430.541462 2049.35948176 C408.69789744 2049.36033511 386.8543329 2049.3605962 365.01076832 2049.36031138 C357.19434188 2049.3602149 349.37791543 2049.36016285 341.56148899 2049.36013265 C339.61701365 2049.36012474 337.67253832 2049.36011453 335.72806298 2049.36010203 C304.76910744 2049.35992584 273.81015649 2049.36561813 242.85120226 2049.37425584 C211.66123842 2049.38291377 180.47128091 2049.3850902 149.28131637 2049.37849452 C144.96622124 2049.3775823 140.65112611 2049.376739 136.33603096 2049.37593651 C135.49019974 2049.37577642 134.64436852 2049.37561633 133.77290605 2049.3754514 C120.40944095 2049.37310339 107.04598685 2049.37744437 93.68252382 2049.3846077 C80.52461971 2049.39151961 67.36673176 2049.39123008 54.20882799 2049.38341556 C46.50693447 2049.37905299 38.8050887 2049.38006046 31.10319919 2049.38928234 C25.36498039 2049.39553193 19.62680649 2049.39119339 13.88859199 2049.38294904 C11.59663529 2049.38124176 9.3046729 2049.38280959 7.01272202 2049.38825025 C-13.76598763 2049.43423197 -34.45956876 2048.29895837 -54.99697113 2045.00642776 C-55.97839081 2044.85019943 -55.97839081 2044.85019943 -56.97963715 2044.69081497 C-92.53661812 2038.96186099 -127.18659891 2028.20181377 -159.43447113 2012.13142776 C-160.47184418 2011.61821976 -161.50921722 2011.10501175 -162.57802582 2010.57625198 C-176.71551089 2003.53748897 -190.33288826 1995.95512105 -203.43447113 1987.13142776 C-204.16069672 1986.64319534 -204.8869223 1986.15496292 -205.63515472 1985.65193558 C-215.69757554 1978.83277436 -225.25428431 1971.48792141 -234.57167816 1963.68562698 C-236.29463349 1962.24809964 -238.03198624 1960.83050475 -239.77431488 1959.41658401 C-247.50645964 1953.05835178 -254.65234416 1946.12271957 -261.74697113 1939.06892776 C-262.66623383 1938.15893021 -263.58549652 1937.24893265 -264.53261566 1936.31135941 C-269.85325462 1930.96620802 -274.78279518 1925.45526818 -279.47524261 1919.5498848 C-281.29883549 1917.29885539 -283.19884772 1915.17689739 -285.18447113 1913.06892776 C-291.58198636 1905.94500144 -296.95061382 1897.96305612 -302.43447113 1890.13142776 C-302.87549164 1889.50494339 -303.31651215 1888.87845901 -303.77089691 1888.23299026 C-339.32724763 1837.41803886 -360.77382043 1777.68479211 -367.43447113 1716.13142776 C-367.56671225 1714.9860556 -367.56671225 1714.9860556 -367.70162492 1713.81754461 C-368.77843356 1703.06738368 -368.57523551 1692.28136936 -368.5658989 1681.49064922 C-368.56754992 1679.16545168 -368.56963683 1676.8402544 -368.572119 1674.51505759 C-368.57709407 1668.78660042 -368.57743756 1663.05815603 -368.57582998 1657.32969723 C-368.57415408 1650.41669728 -368.57830523 1643.50370376 -368.58260543 1636.59070538 C-368.59046824 1623.67172826 -368.59356694 1610.7527539 -368.59405136 1597.83377457 C-368.59455404 1584.74321292 -368.59720389 1571.65265436 -368.60245895 1558.56209373 C-368.60278909 1557.73494286 -368.60311922 1556.90779198 -368.60345936 1556.05557593 C-368.60480938 1552.68662849 -368.60617205 1549.31768105 -368.60755146 1545.94873363 C-368.62384747 1506.07781261 -368.63023938 1466.20689219 -368.63499933 1426.33596842 C-368.63738339 1406.47815543 -368.64108704 1386.62034277 -368.64503643 1366.76253004 C-368.65770078 1303.04893782 -368.66848433 1239.33534562 -368.67187689 1175.62175216 C-368.67203913 1172.57702617 -368.67220469 1169.53230017 -368.67237127 1166.48757418 C-368.67270507 1160.38143733 -368.67303555 1154.27530049 -368.67336583 1148.16916364 C-368.67375273 1141.02052434 -368.67414233 1133.87188504 -368.6745369 1126.72324574 C-368.67464932 1124.67725542 -368.67476073 1122.63126509 -368.67487115 1120.58527476 C-368.67841979 1054.88971914 -368.69349501 989.19417446 -368.71680889 923.49862302 C-368.73355613 876.28791753 -368.74902794 829.07721411 -368.75354385 781.86650562 C-368.75363734 780.89508674 -368.75373083 779.92366785 -368.75382714 778.92281203 C-368.75584644 757.5950238 -368.75700228 736.26723561 -368.75735573 714.9394473 C-368.7574919 707.30733945 -368.75770089 699.67523161 -368.75794898 692.04312377 C-368.75801054 690.14450101 -368.75806886 688.24587825 -368.75812393 686.34725548 C-368.75904283 656.12402577 -368.76899995 625.90080749 -368.78358142 595.67758154 C-368.79821536 565.22363847 -368.80322814 534.76970941 -368.79516188 504.31576345 C-368.79404661 500.10110156 -368.79303592 495.88643965 -368.79208755 491.67177773 C-368.79189759 490.84564136 -368.79170762 490.01950499 -368.79151189 489.16833419 C-368.78878551 476.12322678 -368.79609681 463.07814541 -368.80766092 450.03304366 C-368.81883997 437.18415318 -368.8191949 424.33529926 -368.80829074 411.48640818 C-368.80275549 404.62213501 -368.80216607 397.75795691 -368.81479946 390.89369022 C-368.82622412 384.63370251 -368.82352085 378.373877 -368.81013238 372.11389463 C-368.8077216 369.87812427 -368.81019887 367.64234105 -368.81852886 365.40658491 C-368.89059445 344.6809758 -367.15478987 323.99559716 -363.18447113 303.63142776 C-362.97467621 302.53580521 -362.76488129 301.44018265 -362.54872894 300.31135941 C-355.48280657 264.54076464 -343.44009861 230.38004446 -326.43447113 198.13142776 C-326.04211273 197.37861526 -325.64975433 196.62580276 -325.24550629 195.85017776 C-312.43007871 171.38120176 -296.53361058 148.95704014 -278.43447113 128.13142776 C-277.85697113 127.45338089 -277.27947113 126.77533401 -276.68447113 126.07674026 C-266.64243314 114.37776601 -255.98705821 103.33821569 -244.43447113 93.13142776 C-243.88323578 92.64077835 -243.33200043 92.15012894 -242.76406097 91.64461136 C-216.9453685 68.74513649 -187.61278108 49.87454554 -156.43447113 35.13142776 C-155.70002777 34.78015823 -154.96558441 34.4288887 -154.20888519 34.06697464 C-116.93314983 16.34341745 -76.43355142 5.57297591 -35.43447113 1.13142776 C-34.68009776 1.04326702 -33.9257244 0.95510627 -33.14849123 0.86427398 C-22.13079864 -0.24868953 -11.05983552 -0.00921851 0 0 Z " fill="#00005B" transform="translate(368.4344711303711,-0.13142776489257813)"/>
<path d="M0 0 C0.94742288 -0.00638882 1.89484575 -0.01277764 2.87097842 -0.01936007 C6.0480051 -0.03462955 9.22378868 -0.01413511 12.40077209 0.00622559 C14.67746393 0.00272497 16.95415331 -0.00293293 19.23083496 -0.0105896 C25.41685684 -0.02485638 31.60243521 -0.00775656 37.78841472 0.01569557 C44.25852859 0.03577985 50.72862361 0.02992623 57.19876099 0.02758789 C68.06598715 0.02764149 78.933014 0.04729069 89.80018616 0.07946777 C100.97763937 0.11255124 112.15491153 0.12672733 123.33241272 0.1204834 C136.80521665 0.11299428 150.27789287 0.12037452 163.75068855 0.14213562 C168.89529597 0.15031374 174.03986347 0.15301839 179.18447685 0.15144348 C185.24279943 0.1505649 191.30090546 0.16477396 197.35917091 0.19067001 C199.58358587 0.19783591 201.80802386 0.19991341 204.03244781 0.19655228 C207.06719606 0.19284125 210.10131106 0.20757254 213.13598633 0.22705078 C214.01779869 0.22172286 214.89961104 0.21639493 215.80814499 0.21090555 C220.82340702 0.26650021 224.28421354 0.84122179 228.63148499 3.62145996 C232.00908568 7.86541923 233.44289334 13.32716001 235.19398499 18.40270996 C235.53727341 19.38262909 235.88056183 20.36254822 236.23425293 21.37216187 C236.9793542 23.50056252 237.72201078 25.62982022 238.46250916 27.75982666 C240.47727563 33.55370699 242.51094177 39.34096163 244.54164124 45.12927246 C244.96244461 46.33032623 245.38324799 47.53138 245.81680298 48.76882935 C250.17541347 61.19918515 254.6151967 73.5999497 259.06898499 85.99645996 C259.86402224 88.2108846 260.65902532 90.42532152 261.45399475 92.63977051 C263.05037748 97.08584722 264.64737273 101.53170334 266.24476624 105.97741699 C270.19101852 116.96119281 274.13006094 127.94755449 278.06898499 138.93395996 C278.45915802 140.0220697 278.84933105 141.11017944 279.25132751 142.23126221 C285.81341805 160.53249099 292.35565187 178.84077014 298.89146423 197.15139771 C304.95787297 214.14630985 311.03838784 231.13609874 317.13148499 248.12145996 C324.068392 267.45905933 330.98554278 286.80363428 337.89173889 306.15222168 C343.95805955 323.14685788 350.03848559 340.13637124 356.13148499 357.12145996 C362.64643832 375.28280438 369.14528538 393.44982672 375.63148499 411.62145996 C382.14006095 429.85503135 388.65889996 448.08487194 395.19398499 466.30895996 C395.7796373 467.9421669 395.7796373 467.9421669 396.37712097 469.60836792 C399.12808221 477.27957561 401.87970414 484.95054624 404.63148499 492.62145996 C407.77777978 501.39212784 410.92376902 510.16290515 414.06898499 518.93395996 C414.45933929 520.02252289 414.8496936 521.11108582 415.25187683 522.2326355 C421.81377 540.53341151 428.35581754 558.84123429 434.89146423 577.15139771 C440.95787297 594.14630985 447.03838784 611.13609874 453.13148499 628.12145996 C460.068392 647.45905933 466.98554278 666.80363428 473.89173889 686.15222168 C479.95805955 703.14685788 486.03848559 720.13637124 492.13148499 737.12145996 C499.06502186 756.44966458 505.97885584 775.78482587 512.88166809 795.12402344 C518.34005111 810.41561523 523.80677362 825.70417438 529.28846741 840.98742676 C530.91101565 845.51140551 532.53089074 850.03632627 534.14833069 854.56213379 C537.40172444 863.66010128 540.66301783 872.75274713 544.04164124 881.80505371 C544.52821651 883.12033183 545.01440265 884.43575399 545.50013733 885.75134277 C546.33444436 888.00190222 547.18090724 890.24802488 548.04408264 892.4876709 C550.22076202 898.38968678 551.92632855 904.30567353 550.63148499 910.62145996 C548.71136742 913.08418139 547.6704129 913.60848399 544.63148499 914.62145996 C542.08847752 914.72764834 539.57222919 914.77799819 537.02876282 914.78208923 C536.24709645 914.78717705 535.46543008 914.79226487 534.66007686 914.79750687 C532.03238395 914.81324335 529.40471856 914.82175954 526.7769928 914.8302002 C524.89630457 914.83973761 523.01561811 914.84962873 521.13493347 914.85984802 C514.95151352 914.89124327 508.76808006 914.91149958 502.58460999 914.93005371 C501.53289329 914.93335103 500.48117659 914.93664835 499.39758968 914.9400456 C489.48063939 914.97082442 479.56368608 914.99753418 469.64670181 915.01446438 C456.9582522 915.03637948 444.2702253 915.07836973 431.5819447 915.14790195 C422.66210574 915.19512512 413.7423809 915.21939563 404.82242084 915.22666126 C399.49391538 915.23161965 394.16588629 915.24671878 388.83751678 915.28640556 C383.82394355 915.3232558 378.81111908 915.33168681 373.79743576 915.31839943 C371.9588026 915.3184534 370.12013638 915.32876002 368.28162766 915.35015106 C352.65856483 915.5221877 352.65856483 915.5221877 348.14028931 911.93127441 C345.76858664 909.21081951 344.26532793 906.40033271 343.11854553 902.96740723 C342.74252701 901.87878891 342.36650848 900.79017059 341.97909546 899.66856384 C341.60012619 898.49930862 341.22115692 897.33005341 340.83070374 896.12536621 C340.18889837 894.23869762 339.54708819 892.35203065 338.90502071 890.46545124 C338.24011998 888.49840033 337.58603095 886.52806145 336.93513489 884.55633545 C335.68359246 880.76727745 334.3987051 876.99015475 333.10658264 873.21472168 C330.75339631 866.3291282 328.4290091 859.43403222 326.10963821 852.53699875 C324.02918979 846.35478931 321.94012076 840.1754843 319.85023499 833.99645996 C319.62134897 833.31961088 319.39246296 832.6427618 319.15664101 831.94540215 C315.32633343 820.62365018 311.41403817 809.33244553 307.44398499 798.05895996 C295.81829053 765.03678751 284.79460937 731.80211861 273.63148499 698.62145996 C273.30148499 698.95145996 272.97148499 699.28145996 272.63148499 699.62145996 C270.89578319 699.72383019 269.1558861 699.75545658 267.41717434 699.76012516 C266.27959633 699.7655996 265.14201833 699.77107405 263.96996826 699.77671438 C262.70443196 699.77769249 261.43889565 699.7786706 260.13500977 699.77967834 C258.78946028 699.78424005 257.44391222 699.78923948 256.09836584 699.79464191 C252.38371525 699.80827713 248.66907385 699.81565686 244.95440471 699.82206857 C240.95505556 699.83004899 236.9557257 699.84375482 232.95639038 699.85678101 C226.02156106 699.87857735 219.08672983 699.89671024 212.15188408 699.91238594 C202.12514366 699.93505589 192.09842456 699.96320264 182.07170219 699.99270522 C165.80575052 700.04041647 149.53979014 700.08367104 133.27381897 700.12414551 C117.46879906 700.16348248 101.66378689 700.20490437 85.85877991 700.24914551 C84.39853315 700.25323192 84.39853315 700.25323192 82.90878647 700.25740088 C78.02524978 700.27108006 73.1417132 700.28480039 68.25817668 700.29854119 C27.71596223 700.41256145 -12.82626891 700.51935849 -53.36851501 700.62145996 C-53.68751621 701.61405702 -53.68751621 701.61405702 -54.01296186 702.62670654 C-56.04514012 708.94994523 -58.07738567 715.27316228 -60.1097016 721.59635672 C-61.15382015 724.84495604 -62.19791519 728.09356291 -63.24195099 731.34218884 C-69.43954644 750.62642455 -75.64586612 769.9077944 -81.86851501 789.18395996 C-82.66542001 791.65335132 -83.46229472 794.12275246 -84.25914001 796.59216309 C-84.65496277 797.81873627 -85.05078552 799.04530945 -85.45860291 800.30905151 C-86.24301362 802.73987665 -87.02735778 805.17072327 -87.81163025 807.60159302 C-89.66094541 813.3330231 -91.51128343 819.06411739 -93.36495209 824.79414082 C-94.26409096 827.573929 -95.1625245 830.35394491 -96.06088257 833.13398552 C-96.48597534 834.4488577 -96.91138594 835.76362718 -97.3371582 837.0782795 C-100.08755768 845.57106077 -102.76073567 854.08387727 -105.36851501 862.62145996 C-107.49314604 869.53854977 -109.6377866 876.44906092 -111.80430603 883.35314941 C-112.47552241 885.50127084 -113.14148926 887.6510392 -113.80235291 889.80236816 C-114.76810125 892.94301513 -115.7519765 896.07747994 -116.73960876 899.21130371 C-117.02936081 900.16762192 -117.31911285 901.12394012 -117.61764526 902.10923767 C-119.55389094 908.17090509 -121.57747837 913.09513932 -127.07548523 916.75897312 C-130.29852921 917.97127007 -133.1387533 917.88333896 -136.58018494 917.89561462 C-137.30765269 917.9008513 -138.03512045 917.90608798 -138.78463268 917.91148335 C-141.2228053 917.92648804 -143.66076814 917.92718859 -146.09898376 917.92785645 C-147.84675959 917.93547744 -149.59453206 917.94390484 -151.34230042 917.95307922 C-156.09012105 917.97503275 -160.83787729 917.98382389 -165.58574295 917.98890567 C-168.55072546 917.99254721 -171.51569105 917.99878612 -174.48066711 918.00590706 C-184.82056928 918.03040129 -195.16042125 918.04345409 -205.50035095 918.04699707 C-215.14576524 918.05063577 -224.790862 918.0805551 -234.43617916 918.12240165 C-242.7131227 918.15705555 -250.98996072 918.17254463 -259.26697636 918.17324311 C-264.21244424 918.17403738 -269.1575885 918.1828454 -274.10298157 918.21124077 C-278.75210613 918.23733868 -283.40063675 918.23967325 -288.04980087 918.22358513 C-289.75744797 918.22176421 -291.4651286 918.22851913 -293.17270279 918.24440384 C-295.50146014 918.26474932 -297.8281165 918.25438371 -300.15684509 918.2361908 C-302.11247124 918.23920779 -302.11247124 918.23920779 -304.10760498 918.24228573 C-307.36851501 917.62145996 -307.36851501 917.62145996 -309.78877926 915.23078346 C-312.63433498 910.53064587 -312.02734175 905.61439479 -310.87361145 900.37319946 C-310.20174433 898.12824064 -309.4330845 895.94603263 -308.61460876 893.75036621 C-308.32268143 892.92765732 -308.03075409 892.10494843 -307.72998047 891.25730896 C-306.76964988 888.56081894 -305.78779398 885.8727063 -304.80601501 883.18395996 C-304.12075591 881.27049305 -303.43719318 879.35641786 -302.75523376 877.44177246 C-301.3384426 873.46819626 -299.91441963 869.4973254 -298.48521423 865.52819824 C-295.52788761 857.29802474 -292.65981051 849.03703984 -289.79090881 840.77572632 C-288.23767423 836.30616213 -286.67773311 831.8389395 -285.11851501 827.37145996 C-284.49348338 825.57980433 -283.86848337 823.78813767 -283.24351501 821.99645996 C-221.36851263 644.62145313 -221.36851263 644.62145313 -98.55592346 292.55870056 C-97.93122611 290.76789944 -97.30653128 288.97709744 -96.68183899 287.18629456 C-95.11472931 282.69387775 -93.54757503 278.20147652 -91.98033142 273.70910645 C-89.22279336 265.80472606 -86.46547555 257.90026958 -83.7099762 249.99517822 C-82.22138839 245.72469103 -80.7325121 241.45430446 -79.24351501 237.18395996 C-78.94314331 236.32248352 -78.64277161 235.46100708 -78.33329773 234.57342529 C-74.34805063 223.14514705 -70.35404576 211.71995959 -66.35289001 200.29724121 C-65.91683945 199.05229385 -65.48078888 197.8073465 -65.03152466 196.52467346 C-61.37640437 186.08923956 -61.37640437 186.08923956 -59.64601135 181.15042114 C-54.8963149 167.59316099 -50.15667774 154.03257462 -45.45835876 140.45739746 C-45.07123718 139.33920624 -44.6841156 138.22101501 -44.28526306 137.06893921 C-42.47800621 131.84712601 -40.67335406 126.62443444 -38.87290955 121.40026855 C-35.80229879 112.50844642 -32.66298818 103.65815004 -29.3180542 94.8657074 C-27.52023828 90.10951337 -25.96114133 85.3359949 -24.61851501 80.43395996 C-22.55313076 73.04097858 -22.55313076 73.04097858 -21.32164001 70.24255371 C-19.85984426 66.22261539 -19.42845005 62.09915991 -18.86851501 57.87145996 C-18.74105896 56.93406982 -18.61360291 55.99667969 -18.48228455 55.03088379 C-18.22507508 53.12159816 -17.97130564 51.21184581 -17.72105408 49.30163574 C-17.41406021 46.96771696 -17.09266868 44.63640859 -16.76695251 42.30505371 C-15.92443982 35.9934781 -15.33649918 29.77904749 -15.20054626 23.40661621 C-15.17428162 22.32614014 -15.14801697 21.24566406 -15.12095642 20.13244629 C-15.07845962 17.99849969 -15.05773733 15.86398085 -15.06138611 13.72961426 C-15.04285583 12.75032959 -15.02432556 11.77104492 -15.00523376 10.76208496 C-15.00225281 9.89100098 -14.99927185 9.01991699 -14.99620056 8.12243652 C-13.00567779 0.1913143 -6.8701388 -0.0972796 0 0 Z " fill="#9898FE" transform="translate(571.3685150146484,526.3785400390625)"/>
<path d="M0 0 C3.51411932 -0.0021945 7.0279276 -0.02045857 10.54199219 -0.03930664 C28.84826116 -0.08616233 46.56585569 1.16081969 64.58105469 4.49780273 C65.77657959 4.71726562 66.97210449 4.93672852 68.20385742 5.1628418 C94.6383536 10.13765847 120.30540986 18.45497601 144.51855469 30.18530273 C145.9259555 30.84968578 147.33350329 31.51375757 148.74121094 32.17749023 C213.85696782 63.34086807 256.53117716 124.13929579 280.48730469 190.59545898 C301.46644459 250.36292277 301.70424178 314.42208584 295.73303223 376.8112793 C295.49958409 379.39528573 295.30445462 381.98079671 295.11132812 384.56811523 C294.96359601 386.36762563 294.81549245 388.16710557 294.66699219 389.96655273 C294.61145172 390.79884399 294.55591125 391.63113525 294.49868774 392.48864746 C294.04119348 397.70834129 293.09827798 401.12671461 289.51855469 405.18530273 C284.48381912 408.6583292 279.24557709 408.90248929 273.31542969 409.35327148 C272.30534851 409.43808273 271.29526733 409.52289398 270.25457764 409.61027527 C266.92699379 409.88152955 263.59830093 410.12960637 260.26855469 410.37280273 C258.55116089 410.50262543 258.55116089 410.50262543 256.79907227 410.6350708 C239.53709543 411.91795851 222.32730732 412.56790289 205.01855469 412.56030273 C204.03383179 412.56202484 203.04910889 412.56374695 202.0345459 412.56552124 C192.00682281 412.56352419 182.04994927 412.28001932 172.05386806 411.46056592 C156.5220855 410.19669378 141.07470328 409.87550185 125.4976213 409.8686285 C121.92205131 409.86484552 118.34652435 409.84964972 114.77098083 409.83601379 C108.61256133 409.81400876 102.45415768 409.798837 96.2957077 409.7886467 C87.39222281 409.77390383 78.48879334 409.74832645 69.58534148 409.72031541 C55.13129068 409.67512648 40.67723177 409.63839814 26.22314453 409.60717773 C12.20327334 409.57687668 -1.81657817 409.54247452 -15.83642578 409.50268555 C-16.70425923 409.500224 -17.57209267 409.49776245 -18.4662241 409.49522631 C-22.82097941 409.48284948 -27.17573448 409.47039337 -31.53048944 409.4578979 C-67.51411412 409.35474908 -103.49776233 409.26540966 -139.48144531 409.18530273 C-139.02685179 411.85395611 -138.56787014 414.52173538 -138.10644531 417.18920898 C-137.98011719 417.93352173 -137.85378906 418.67783447 -137.72363281 419.44470215 C-136.43998272 426.82769588 -134.57083574 433.98765997 -132.48144531 441.18530273 C-132.26762207 441.94713867 -132.05379883 442.70897461 -131.83349609 443.49389648 C-121.23827698 480.32181358 -98.2332077 512.57612821 -64.6862793 531.6550293 C-38.83096101 545.66064525 -9.4648492 553.9310592 19.51855469 558.18530273 C21.27208252 558.45346802 21.27208252 558.45346802 23.06103516 558.72705078 C33.58487422 560.2080915 43.90259988 560.46237351 54.51855469 560.37280273 C56.24666225 560.36457901 57.97477102 560.35660645 59.70288086 560.34887695 C77.90929949 560.24229215 96.03291064 559.83475702 114.10644531 557.49438477 C116.83059419 557.14531873 119.55716086 556.8197582 122.28417969 556.49389648 C131.2585105 555.39937721 140.04192549 554.22733117 148.81152344 551.98608398 C152.96114523 551.08969572 157.10785985 550.49704814 161.31030273 549.90698242 C182.61613373 546.8920505 202.89871397 541.44752213 223.12011719 534.11816406 C224.13460937 533.75102295 225.14910156 533.38388184 226.19433594 533.00561523 C227.08032471 532.67835449 227.96631348 532.35109375 228.87915039 532.01391602 C231.74235304 531.11504359 234.55165333 530.61492634 237.51855469 530.18530273 C239.80898513 533.62094839 239.77127214 534.87183752 239.7792511 538.91433716 C239.78633591 540.10867874 239.79342072 541.30302032 239.80072021 542.53355408 C239.7982428 543.84578445 239.79576538 545.15801483 239.79321289 546.51000977 C239.79755981 547.90470147 239.80274289 549.29939078 239.80870056 550.69407654 C239.82211029 554.48573141 239.8226666 558.2772867 239.82013726 562.06896067 C239.81906796 565.23706454 239.82395034 568.40514824 239.82874268 571.57324779 C239.83984666 579.05332308 239.84027158 586.53334818 239.83422852 594.01342773 C239.82819962 601.71767169 239.84046999 609.42173251 239.86179858 617.12594521 C239.87945115 623.74691018 239.88540983 630.36781708 239.88216084 636.9888047 C239.8803522 640.9400574 239.88294129 644.89117974 239.89687538 648.84241104 C239.90950716 652.56397227 239.90745949 656.28525015 239.89446449 660.00680733 C239.89099327 662.01250582 239.90223984 664.01821317 239.91403198 666.02388 C239.82358332 681.64292914 239.82358332 681.64292914 234.34277344 687.51733398 C230.77411936 689.62496233 227.16342977 691.30293847 223.33105469 692.87280273 C222.50790771 693.21239014 221.68476074 693.55197754 220.83666992 693.90185547 C192.72213979 705.2965534 164.00538901 712.66328963 134.10717773 717.59008789 C131.50724317 718.02131726 128.91070512 718.46363488 126.31469727 718.91723633 C115.7279214 720.75214484 105.14233177 722.19632455 94.45605469 723.31030273 C93.22976349 723.43870544 93.22976349 723.43870544 91.97869873 723.56970215 C75.98132808 725.21882024 60.04764824 726.00937142 43.96502686 726.15991211 C41.30712567 726.18749704 38.64946535 726.22501955 35.99169922 726.26342773 C-7.33315634 726.85841063 -50.27209561 724.78110307 -92.48144531 714.18530273 C-93.35494629 713.97292969 -94.22844727 713.76055664 -95.12841797 713.54174805 C-146.07091722 701.12785151 -191.70641608 677.53540825 -230.48144531 642.18530273 C-232.21033231 640.64332244 -233.93949725 639.10165373 -235.66894531 637.56030273 C-242.41114714 631.4817864 -248.63840011 625.13262987 -254.48144531 618.18530273 C-254.93793457 617.64260742 -255.39442383 617.09991211 -255.86474609 616.54077148 C-294.35068332 570.55949183 -320.33968398 514.70679769 -329.90332031 455.39624023 C-330.30430618 452.30487726 -330.30430618 452.30487726 -331.48144531 450.18530273 C-331.75851517 448.50747069 -331.99121115 446.82218665 -332.20019531 445.13452148 C-332.3278125 444.12583008 -332.45542969 443.11713867 -332.58691406 442.07788086 C-332.71710938 441.02020508 -332.84730469 439.9625293 -332.98144531 438.87280273 C-333.24027725 436.7931778 -333.50064194 434.71374294 -333.76269531 432.63452148 C-333.87677734 431.70986084 -333.99085937 430.7852002 -334.10839844 429.83251953 C-334.35147035 428.10763157 -334.6441958 426.38879639 -334.99291992 424.68212891 C-341.48032806 391.52534581 -339.33342779 352.54972319 -335.48144531 319.18530273 C-335.35785645 318.04561035 -335.23426758 316.90591797 -335.10693359 315.73168945 C-331.99993155 287.62556066 -326.13788834 260.11232638 -317.48144531 233.18530273 C-317.17625977 232.23397461 -316.87107422 231.28264648 -316.55664062 230.30249023 C-304.71979827 193.89653363 -287.58325969 158.79616457 -264.48144531 128.18530273 C-264.08006348 127.6479248 -263.67868164 127.11054687 -263.26513672 126.55688477 C-248.38873586 106.6608033 -231.7524675 86.85817707 -212.22753906 71.37670898 C-209.43706186 69.14988436 -206.74713697 66.82944771 -204.04394531 64.49780273 C-184.78649291 48.49128624 -163.08426773 35.84250144 -140.48144531 25.18530273 C-139.55017822 24.73960937 -139.55017822 24.73960937 -138.60009766 24.28491211 C-113.60593133 12.41801545 -86.37482787 6.32697573 -59.04394531 2.87280273 C-57.79049316 2.71336182 -56.53704102 2.5539209 -55.24560547 2.38964844 C-36.88145632 0.22796798 -18.4727861 -0.00128676 0 0 Z " fill="#9898FE" transform="translate(1499.4814453125,737.814697265625)"/>
<path d="M0 0 C2 1 2 1 2.75854492 2.91992188 C3.11589722 4.1815918 3.11589722 4.1815918 3.48046875 5.46875 C3.89039063 6.89465454 3.89039063 6.89465454 4.30859375 8.34936523 C4.59863281 9.38907471 4.88867188 10.42878418 5.1875 11.5 C5.49429688 12.57644775 5.80109375 13.65289551 6.1171875 14.76196289 C7.08655924 18.17232147 8.04425817 21.5857991 9 25 C9.58964983 27.09250257 10.17948802 29.18495207 10.76953125 31.27734375 C12.81883547 38.56279639 14.84673746 45.85417561 16.875 53.14550781 C20.32290948 65.53258438 23.81655355 77.90325009 27.44091797 90.23999023 C28.85206232 95.04637806 30.24746458 99.8557829 31.59765625 104.6796875 C34.0337003 113.37577134 36.52362389 121.95594387 39.7265625 130.40625 C41.19703613 134.55605289 42.47226768 138.74795776 43.75537109 142.95898438 C45.23734344 147.79691295 46.77567699 152.61677004 48.3125 157.4375 C48.61030365 158.37203003 48.9081073 159.30656006 49.2149353 160.26940918 C50.14279951 163.1797629 51.07129093 166.08991578 52 169 C55.71835049 180.65134851 59.42950862 192.30234823 63 204 C63.78697946 206.54316229 64.58062568 209.08412894 65.375 211.625 C65.57996094 212.28121338 65.78492188 212.93742676 65.99609375 213.61352539 C67.14707593 217.29348075 68.30701166 220.97043378 69.4765625 224.64453125 C69.73002441 225.4422998 69.98348633 226.24006836 70.24462891 227.06201172 C70.72187265 228.56284613 71.20052784 230.0632331 71.68115234 231.56298828 C73.03429638 235.82048793 74.32144223 240.0925753 75.56333923 244.38392639 C78.92960174 255.98885237 82.61355349 267.4896224 86.31079102 278.99267578 C87.4351697 282.49274602 88.55468978 285.99434491 89.67382812 289.49609375 C93.2295576 300.59271052 96.84318715 311.65382541 100.79931641 322.61474609 C102.2737597 326.77184871 103.58921926 330.96307617 104.85546875 335.1875 C105.82034908 338.40157236 106.80590659 341.60764438 107.80078125 344.8125 C108.45058637 346.91664643 109.10032545 349.02081325 109.75 351.125 C110.06831787 352.14609863 110.38663574 353.16719727 110.71459961 354.21923828 C111.00987549 355.18071777 111.30515137 356.14219727 111.609375 357.1328125 C111.87717773 357.99793457 112.14498047 358.86305664 112.42089844 359.75439453 C113 362 113 362 113 365 C40.07 365 -32.86 365 -108 365 C-107.33753967 360.36277769 -106.82648416 356.98486997 -105.36108398 352.73681641 C-104.85936928 351.26699814 -104.85936928 351.26699814 -104.34751892 349.76748657 C-103.98404861 348.72273163 -103.62057831 347.67797668 -103.24609375 346.6015625 C-102.86695328 345.49436859 -102.48781281 344.38717468 -102.09718323 343.24642944 C-100.88314652 339.70390895 -99.66084486 336.16431572 -98.4375 332.625 C-87.15383249 300.10325808 -87.15383249 300.10325808 -77.3125 267.125 C-77.02906738 266.10092041 -76.74563477 265.07684082 -76.45361328 264.02172852 C-74.70482143 257.67457302 -73.02749272 251.31027723 -71.375 244.9375 C-68.73136895 234.75231446 -65.80191076 224.65549443 -62.0625 214.8125 C-60.1375745 209.66139935 -58.66515746 204.41701975 -57.1875 199.125 C-54.93950734 191.07453316 -52.47192633 183.1366925 -49.71166992 175.24658203 C-47.67818966 169.33783943 -45.94559678 163.36368364 -44.25 157.3515625 C-40.89017876 145.45494664 -37.21077042 133.66600574 -33.5 121.875 C-32.85523026 119.8190852 -32.21069846 117.76309576 -31.56640625 115.70703125 C-26.55669023 99.73165572 -26.55669023 99.73165572 -24.28540039 92.63208008 C-21.77704476 84.78104605 -19.30755867 76.97037356 -17.4375 68.9375 C-16.13568234 63.53091803 -14.78563308 58.15910884 -13.22827148 52.8203125 C-10.1012996 42.08914228 -7.78694307 31.18935408 -5.49853516 20.25488281 C-4.03857466 13.33877122 -2.42405109 6.64777646 0 0 Z " fill="#00005B" transform="translate(678,686)"/>
<path d="M0 0 C0.82467773 0.0294873 1.64935547 0.05897461 2.49902344 0.08935547 C25.82458566 1.12712253 49.23370992 12.37037907 67 27 C67.92425781 27.75925781 68.84851562 28.51851562 69.80078125 29.30078125 C89.94078695 46.70607614 105.09112764 73.37059575 108 100 C108.11420375 103.98030485 108.09462881 107.95599886 108.0625 111.9375 C108.05798828 113.00291016 108.05347656 114.06832031 108.04882812 115.16601562 C108.03711787 117.77740291 108.02071724 120.38867124 108 123 C106.25804159 123.80920763 104.50574945 124.59616755 102.75 125.375 C101.77546875 125.81585937 100.8009375 126.25671875 99.796875 126.7109375 C87.63120431 131.22876235 74.27614805 130.27164046 61.52441406 130.22705078 C59.25666306 130.22648593 56.98891168 130.22680466 54.72116089 130.22793579 C48.59393533 130.22850743 42.46678876 130.21678373 36.33958149 130.20278788 C29.92542742 130.19024897 23.51127136 130.18910753 17.09710693 130.18673706 C6.34076317 130.18123572 -4.41554623 130.16876025 -15.171875 130.15087891 C-26.24544126 130.13248945 -37.31899966 130.118348 -48.39257812 130.10986328 C-49.41836258 130.10907511 -49.41836258 130.10907511 -50.46486995 130.10827102 C-53.89595867 130.10566073 -57.32704745 130.10313337 -60.75813627 130.10064721 C-89.17211066 130.07995148 -117.58605378 130.04460844 -146 130 C-145.86327522 127.78866898 -145.72038201 125.57771888 -145.57495117 123.36694336 C-145.45660164 121.52005165 -145.45660164 121.52005165 -145.33586121 119.635849 C-144.85658159 114.44743106 -143.69841275 109.57361336 -142.3125 104.5625 C-142.0448584 103.57241943 -141.7772168 102.58233887 -141.50146484 101.56225586 C-131.79172915 66.61687727 -111.26645642 34.34758824 -79.1953125 16.21875 C-77.55157289 15.32464208 -75.90317708 14.43903545 -74.25 13.5625 C-73.49477051 13.16168213 -72.73954102 12.76086426 -71.96142578 12.34790039 C-49.2244822 0.70412723 -25.14268731 -1.09765002 0 0 Z " fill="#00005B" transform="translate(1506,889)"/>
</svg>
