<?xml version="1.0" encoding="UTF-8"?>
<svg version="1.1" xmlns="http://www.w3.org/2000/svg" width="2101" height="2049">
<path d="M0 0 C2.41187174 -0.0016509 4.82374321 -0.00373775 7.23561424 -0.0062201 C12.48820501 -0.01061791 17.74078716 -0.01192265 22.99337918 -0.01049176 C30.85694931 -0.00836539 38.72050975 -0.01199135 46.58407839 -0.01670653 C59.98800905 -0.02457041 73.39193704 -0.0276681 86.79586983 -0.02815247 C100.37826225 -0.0286551 113.96065169 -0.03130456 127.54304314 -0.03656006 C128.40120052 -0.03689019 129.25935789 -0.03722033 130.14352004 -0.03756046 C133.63874369 -0.03891049 137.13396734 -0.04027315 140.62919098 -0.04165257 C181.99724061 -0.05794967 223.36528967 -0.06434064 264.73334196 -0.06910044 C285.33671308 -0.0714844 305.94008387 -0.07518804 326.54345474 -0.07913754 C392.64824374 -0.09180204 458.75303272 -0.10258553 524.85782291 -0.10597799 C528.0169096 -0.10614023 531.1759963 -0.10630579 534.33508299 -0.10647238 C540.67057624 -0.10680617 547.00606949 -0.10713665 553.34156275 -0.10746694 C560.75872886 -0.10785383 568.17589497 -0.10824344 575.59306108 -0.108638 C577.71590635 -0.10875042 579.83875162 -0.10886184 581.96159689 -0.10897225 C650.12386363 -0.11252084 718.28611983 -0.12759575 786.44838255 -0.15091 C835.43091501 -0.16765722 884.41344548 -0.18312905 933.39598083 -0.18764496 C934.90779779 -0.18778519 934.90779779 -0.18778519 936.4501565 -0.18792825 C958.57843327 -0.18994755 980.70671001 -0.19110338 1002.83498688 -0.19145683 C1010.75356038 -0.191593 1018.67213389 -0.19180199 1026.5907074 -0.19205009 C1028.56059563 -0.19211165 1030.53048387 -0.19216997 1032.50037211 -0.19222504 C1063.85828769 -0.19314394 1095.21619225 -0.20310116 1126.57410421 -0.21768252 C1158.1716672 -0.23231649 1189.76921667 -0.23732924 1221.36678244 -0.22926298 C1225.73972081 -0.22814771 1230.1126592 -0.22713702 1234.48559761 -0.22618866 C1235.34275887 -0.22599869 1236.19992012 -0.22580872 1237.08305596 -0.225613 C1250.61810763 -0.22288661 1264.1531342 -0.23019794 1277.68818041 -0.24176203 C1291.0196364 -0.25294104 1304.35105714 -0.25329604 1317.68251372 -0.24239184 C1325.48312893 -0.23632922 1333.28363734 -0.23829901 1341.08424232 -0.25264382 C1346.9008013 -0.26240515 1352.71726182 -0.25622336 1358.53381265 -0.24423349 C1360.85357066 -0.24182268 1363.17334107 -0.24430006 1365.49308538 -0.25262997 C1424.45525125 -0.45022412 1482.4820766 14.66631831 1534.56552887 42.13142776 C1535.31834137 42.52378616 1536.07115387 42.91614456 1536.84677887 43.32039261 C1564.32178651 57.71020485 1589.16648455 75.98209751 1612.05381012 96.84236526 C1613.81066354 98.44347896 1615.57999038 100.03096426 1617.35849762 101.60799026 C1629.14762984 112.16681674 1639.71753175 123.74864182 1649.56552887 136.13142776 C1650.44757506 137.18914564 1651.33180944 138.24504143 1652.21787262 139.29939651 C1670.51032246 161.27908428 1685.35852526 186.31641713 1697.56552887 212.13142776 C1697.9167984 212.86587112 1698.26806793 213.60031448 1698.62998199 214.3570137 C1716.35245563 251.63047015 1727.12944179 292.13359119 1731.56552887 333.13142776 C1731.65368962 333.89519039 1731.74185037 334.65895302 1731.83268265 335.44585996 C1732.90878569 346.19075375 1732.70629566 356.97116702 1732.69695663 367.75658894 C1732.69860767 370.08008106 1732.70069458 372.4035729 1732.70317674 374.72706428 C1732.70815178 380.45128572 1732.70849531 386.17549436 1732.70688772 391.89971742 C1732.70521181 398.80761321 1732.70936298 405.71550256 1732.71366317 412.62339678 C1732.72152596 425.53283322 1732.72462468 438.4422669 1732.7251091 451.35170555 C1732.72561178 464.43259185 1732.72826164 477.51347507 1732.73351669 490.59436035 C1732.73384683 491.42090129 1732.73417696 492.24744222 1732.7345171 493.09902985 C1732.73586712 496.46549331 1732.73722979 499.83195676 1732.7386092 503.1984202 C1732.75490519 543.03989817 1732.76129712 582.88137553 1732.76605707 622.72285626 C1732.76844113 642.56601599 1732.77214478 662.40917538 1732.77609417 682.25233485 C1732.78875852 745.91895504 1732.79954207 809.58557522 1732.80293463 873.25219665 C1732.80309687 876.29467657 1732.80326243 879.33715649 1732.80342901 882.37963641 C1732.80376281 888.48126851 1732.80409329 894.5829006 1732.80442357 900.6845327 C1732.80481047 907.82789773 1732.80520007 914.97126275 1732.80559463 922.11462778 C1732.80570705 924.15910854 1732.80581847 926.20358931 1732.80592889 928.24807008 C1732.80947753 993.89512327 1732.82455275 1059.54216551 1732.84786663 1125.18921452 C1732.86461388 1172.36507849 1732.88008568 1219.54094039 1732.88460159 1266.71680737 C1732.88474182 1268.1728618 1732.88474182 1268.1728618 1732.88488488 1269.65833147 C1732.88690418 1290.9704062 1732.88806002 1312.28248089 1732.88841347 1333.59455571 C1732.88854964 1341.22104154 1732.88875863 1348.84752736 1732.88900672 1356.47401318 C1732.88906828 1358.37123724 1732.8891266 1360.26846129 1732.88918167 1362.16568535 C1732.89010056 1392.36659244 1732.90005766 1422.56748809 1732.91463916 1452.76839142 C1732.92927314 1483.19986258 1732.93428586 1513.63131972 1732.92621962 1544.06279378 C1732.92510435 1548.27435558 1732.92409365 1552.4859174 1732.92314529 1556.69747925 C1732.92295533 1557.52300787 1732.92276536 1558.34853649 1732.92256963 1559.19908114 C1732.91984326 1572.23453609 1732.92715451 1585.26996499 1732.93871866 1598.30541428 C1732.94989777 1611.14483078 1732.95025257 1623.98421069 1732.93934848 1636.8236278 C1732.93381327 1643.68282579 1732.93322368 1650.54192863 1732.9458572 1657.40112013 C1732.95728201 1663.65650275 1732.95457842 1669.91172303 1732.94119012 1676.1671003 C1732.93877937 1678.40120361 1732.94125647 1680.6353198 1732.9495866 1682.86940888 C1733.21535388 1759.24428678 1707.16421531 1835.97766585 1661.56552887 1897.13142776 C1661.13965485 1897.70747757 1660.71378082 1898.28352737 1660.27500153 1898.87703323 C1643.91345199 1920.92844717 1624.8772669 1943.1046505 1603.20224762 1960.04939651 C1600.79917512 1961.94693376 1598.49627282 1963.9284103 1596.19736481 1965.94978714 C1574.55270662 1984.83330349 1549.14611035 1999.33651124 1523.56552887 2012.13142776 C1522.76469879 2012.53844925 1521.96386871 2012.94547073 1521.13877106 2013.3648262 C1469.83976801 2039.35196447 1412.0789403 2049.31584432 1355.03464699 2049.26006222 C1352.64906864 2049.26141027 1350.2634905 2049.26319496 1347.87791276 2049.26537445 C1342.69233214 2049.26910846 1337.50676067 2049.26976373 1332.32117952 2049.26766851 C1324.5580185 2049.2645491 1316.7948666 2049.26721574 1309.03170624 2049.27096722 C1295.7977882 2049.27719142 1282.56387343 2049.27867474 1269.32995415 2049.27754974 C1255.92298083 2049.2764244 1242.51601029 2049.27746247 1229.1090374 2049.28112221 C1228.26147144 2049.28135186 1227.41390548 2049.28158151 1226.5406557 2049.28181813 C1223.08849348 2049.28275979 1219.63633127 2049.28371548 1216.18416907 2049.28468932 C1180.1895954 2049.29482827 1144.19502328 2049.29789511 1108.20044835 2049.29848143 C1104.32719331 2049.29854618 1100.45393827 2049.29861412 1096.58068323 2049.29868484 C1095.61949911 2049.29870184 1094.658315 2049.29871884 1093.66800409 2049.29873636 C1072.35865325 2049.299145 1051.04930271 2049.30133549 1029.73995202 2049.30384068 C1020.96265244 2049.30486905 1012.18535286 2049.30585909 1003.40805328 2049.30685693 C1002.4382039 2049.30696752 1001.46835451 2049.30707811 1000.46911575 2049.30719205 C944.89771819 2049.31351545 889.32632081 2049.31764124 833.75492287 2049.31718349 C831.67562626 2049.31716772 829.59632965 2049.31715198 827.51703305 2049.31713629 C818.12940242 2049.3170629 808.74177179 2049.31697473 799.35414116 2049.3168824 C795.16805086 2049.31684128 790.98196055 2049.31680113 786.79587024 2049.31676109 C784.70065736 2049.31674069 782.60544448 2049.31671967 780.5102316 2049.31669803 C714.26726851 2049.31601789 648.02431077 2049.3233336 581.78134918 2049.33723831 C565.09275629 2049.34073943 548.40416339 2049.34420893 531.71557045 2049.34750271 C530.17412706 2049.34780702 530.17412706 2049.34780702 528.6015434 2049.34811748 C496.91985006 2049.35433422 465.23815716 2049.35809838 433.55646324 2049.35936069 C432.56151283 2049.35940065 431.56656242 2049.3594406 430.541462 2049.35948176 C408.69789744 2049.36033511 386.8543329 2049.3605962 365.01076832 2049.36031138 C357.19434188 2049.3602149 349.37791543 2049.36016285 341.56148899 2049.36013265 C339.61701365 2049.36012474 337.67253832 2049.36011453 335.72806298 2049.36010203 C304.76910744 2049.35992584 273.81015649 2049.36561813 242.85120226 2049.37425584 C211.66123842 2049.38291377 180.47128091 2049.3850902 149.28131637 2049.37849452 C144.96622124 2049.3775823 140.65112611 2049.376739 136.33603096 2049.37593651 C135.49019974 2049.37577642 134.64436852 2049.37561633 133.77290605 2049.3754514 C120.40944095 2049.37310339 107.04598685 2049.37744437 93.68252382 2049.3846077 C80.52461971 2049.39151961 67.36673176 2049.39123008 54.20882799 2049.38341556 C46.50693447 2049.37905299 38.8050887 2049.38006046 31.10319919 2049.38928234 C25.36498039 2049.39553193 19.62680649 2049.39119339 13.88859199 2049.38294904 C11.59663529 2049.38124176 9.3046729 2049.38280959 7.01272202 2049.38825025 C-13.76598763 2049.43423197 -34.45956876 2048.29895837 -54.99697113 2045.00642776 C-55.97839081 2044.85019943 -55.97839081 2044.85019943 -56.97963715 2044.69081497 C-92.53661812 2038.96186099 -127.18659891 2028.20181377 -159.43447113 2012.13142776 C-160.47184418 2011.61821976 -161.50921722 2011.10501175 -162.57802582 2010.57625198 C-176.71551089 2003.53748897 -190.33288826 1995.95512105 -203.43447113 1987.13142776 C-204.16069672 1986.64319534 -204.8869223 1986.15496292 -205.63515472 1985.65193558 C-215.69757554 1978.83277436 -225.25428431 1971.48792141 -234.57167816 1963.68562698 C-236.29463349 1962.24809964 -238.03198624 1960.83050475 -239.77431488 1959.41658401 C-247.50645964 1953.05835178 -254.65234416 1946.12271957 -261.74697113 1939.06892776 C-262.66623383 1938.15893021 -263.58549652 1937.24893265 -264.53261566 1936.31135941 C-269.85325462 1930.96620802 -274.78279518 1925.45526818 -279.47524261 1919.5498848 C-281.29883549 1917.29885539 -283.19884772 1915.17689739 -285.18447113 1913.06892776 C-291.58198636 1905.94500144 -296.95061382 1897.96305612 -302.43447113 1890.13142776 C-302.87549164 1889.50494339 -303.31651215 1888.87845901 -303.77089691 1888.23299026 C-339.32724763 1837.41803886 -360.77382043 1777.68479211 -367.43447113 1716.13142776 C-367.56671225 1714.9860556 -367.56671225 1714.9860556 -367.70162492 1713.81754461 C-368.77843356 1703.06738368 -368.57523551 1692.28136936 -368.5658989 1681.49064922 C-368.56754992 1679.16545168 -368.56963683 1676.8402544 -368.572119 1674.51505759 C-368.57709407 1668.78660042 -368.57743756 1663.05815603 -368.57582998 1657.32969723 C-368.57415408 1650.41669728 -368.57830523 1643.50370376 -368.58260543 1636.59070538 C-368.59046824 1623.67172826 -368.59356694 1610.7527539 -368.59405136 1597.83377457 C-368.59455404 1584.74321292 -368.59720389 1571.65265436 -368.60245895 1558.56209373 C-368.60278909 1557.73494286 -368.60311922 1556.90779198 -368.60345936 1556.05557593 C-368.60480938 1552.68662849 -368.60617205 1549.31768105 -368.60755146 1545.94873363 C-368.62384747 1506.07781261 -368.63023938 1466.20689219 -368.63499933 1426.33596842 C-368.63738339 1406.47815543 -368.64108704 1386.62034277 -368.64503643 1366.76253004 C-368.65770078 1303.04893782 -368.66848433 1239.33534562 -368.67187689 1175.62175216 C-368.67203913 1172.57702617 -368.67220469 1169.53230017 -368.67237127 1166.48757418 C-368.67270507 1160.38143733 -368.67303555 1154.27530049 -368.67336583 1148.16916364 C-368.67375273 1141.02052434 -368.67414233 1133.87188504 -368.6745369 1126.72324574 C-368.67464932 1124.67725542 -368.67476073 1122.63126509 -368.67487115 1120.58527476 C-368.67841979 1054.88971914 -368.69349501 989.19417446 -368.71680889 923.49862302 C-368.73355613 876.28791753 -368.74902794 829.07721411 -368.75354385 781.86650562 C-368.75363734 780.89508674 -368.75373083 779.92366785 -368.75382714 778.92281203 C-368.75584644 757.5950238 -368.75700228 736.26723561 -368.75735573 714.9394473 C-368.7574919 707.30733945 -368.75770089 699.67523161 -368.75794898 692.04312377 C-368.75801054 690.14450101 -368.75806886 688.24587825 -368.75812393 686.34725548 C-368.75904283 656.12402577 -368.76899995 625.90080749 -368.78358142 595.67758154 C-368.79821536 565.22363847 -368.80322814 534.76970941 -368.79516188 504.31576345 C-368.79404661 500.10110156 -368.79303592 495.88643965 -368.79208755 491.67177773 C-368.79189759 490.84564136 -368.79170762 490.01950499 -368.79151189 489.16833419 C-368.78878551 476.12322678 -368.79609681 463.07814541 -368.80766092 450.03304366 C-368.81883997 437.18415318 -368.8191949 424.33529926 -368.80829074 411.48640818 C-368.80275549 404.62213501 -368.80216607 397.75795691 -368.81479946 390.89369022 C-368.82622412 384.63370251 -368.82352085 378.373877 -368.81013238 372.11389463 C-368.8077216 369.87812427 -368.81019887 367.64234105 -368.81852886 365.40658491 C-368.89059445 344.6809758 -367.15478987 323.99559716 -363.18447113 303.63142776 C-362.97467621 302.53580521 -362.76488129 301.44018265 -362.54872894 300.31135941 C-355.48280657 264.54076464 -343.44009861 230.38004446 -326.43447113 198.13142776 C-326.04211273 197.37861526 -325.64975433 196.62580276 -325.24550629 195.85017776 C-312.43007871 171.38120176 -296.53361058 148.95704014 -278.43447113 128.13142776 C-277.85697113 127.45338089 -277.27947113 126.77533401 -276.68447113 126.07674026 C-266.64243314 114.37776601 -255.98705821 103.33821569 -244.43447113 93.13142776 C-243.88323578 92.64077835 -243.33200043 92.15012894 -242.76406097 91.64461136 C-216.9453685 68.74513649 -187.61278108 49.87454554 -156.43447113 35.13142776 C-155.70002777 34.78015823 -154.96558441 34.4288887 -154.20888519 34.06697464 C-116.93314983 16.34341745 -76.43355142 5.57297591 -35.43447113 1.13142776 C-34.68009776 1.04326702 -33.9257244 0.95510627 -33.14849123 0.86427398 C-22.13079864 -0.24868953 -11.05983552 -0.00921851 0 0 Z " fill="#49021F" transform="translate(368.4344711303711,-0.13142776489257813)"/>
<path d="M0 0 C0.75620148 -0.00709439 1.51240296 -0.01418877 2.29151964 -0.02149814 C4.82145283 -0.03907841 7.34984967 -0.02097453 9.87976074 -0.00291443 C11.6950297 -0.00805326 13.51029367 -0.01533427 15.32554626 -0.02459717 C20.25330235 -0.04312396 25.18051793 -0.0301645 30.10825157 -0.01050687 C35.26423148 0.00587036 40.42017691 -0.00293197 45.57617188 -0.00802612 C54.23491049 -0.01254811 62.89343316 0.00332933 71.55212402 0.03126526 C81.56390569 0.06331759 91.57529786 0.06330174 101.58710718 0.04605049 C111.21668541 0.03018878 120.84612078 0.03691669 130.47569275 0.0539875 C134.57449646 0.06086155 138.6731858 0.05982191 142.77198792 0.05244255 C147.59840467 0.04478353 152.42437795 0.05689336 157.25071907 0.08429146 C159.02242275 0.09118039 160.79416781 0.09126781 162.56587029 0.08407593 C164.98378079 0.0753916 167.40031948 0.09131852 169.81811523 0.11352539 C170.87089118 0.10116424 170.87089118 0.10116424 171.94493532 0.08855337 C176.74751084 0.17001715 179.04879407 1.24034503 182.40905762 4.62818909 C183.03315345 7.36137179 183.03315345 7.36137179 183.03185946 10.57143885 C183.04350444 11.79804953 183.05514942 13.02466021 183.06714728 14.28844091 C183.05478247 15.65446921 183.04196349 17.02049345 183.02874088 18.38651371 C183.03293212 19.83999672 183.03931878 21.29347478 183.04770818 22.74693963 C183.06448542 26.76454062 183.0499174 30.78152471 183.03052234 34.79909168 C183.01495007 39.16185533 183.02833313 43.52454247 183.03814548 47.88730949 C183.05135743 55.54288137 183.0459845 63.1982674 183.0286274 70.85382843 C183.00292133 82.24056473 183.00582825 93.6271662 183.01487583 105.01392152 C183.02936994 124.18139236 183.02111864 143.34878997 183.00064278 162.51625252 C182.97288735 188.74644856 182.9769107 214.97657109 182.9892286 241.20677542 C182.99491685 253.43538828 182.99899287 265.66400168 183.00260067 277.89261532 C183.0029629 279.11713596 183.00332512 280.3416566 183.00369833 281.60328393 C183.0119317 310.77573252 183.0040023 339.94817361 182.99377441 369.12062073 C182.99311048 371.03569831 182.99311048 371.03569831 182.99243313 372.98946432 C182.98839378 384.62428852 182.98422351 396.25911266 182.9799226 407.89393676 C182.96946847 436.25107309 182.96120671 464.60820977 182.95471191 492.96534729 C182.95426817 494.86683916 182.95426817 494.86683916 182.95381546 496.806745 C182.94711874 525.8178786 182.94436319 554.82900675 182.9523077 583.84014034 C182.95264057 585.06418439 182.95297344 586.28822843 182.9533164 587.54936472 C182.95671536 599.78111645 182.96069807 612.01286783 182.9655938 624.24461904 C182.97590137 650.41252516 182.9749474 676.58036132 182.95049285 702.74825948 C182.93276198 721.87074436 182.92888183 740.99319014 182.93878789 760.11568106 C182.94369711 770.44584109 182.94231152 780.77590057 182.92215157 791.10604477 C182.851017 829.00689793 182.79489184 866.76134548 186.00989014 904.55244976 C186.98055035 916.02128456 187.62829898 927.42067894 187.71973515 938.93451786 C187.73741374 940.12833784 187.75509233 941.32215781 187.77330663 942.55215415 C187.77264897 943.66535796 187.77199132 944.77856177 187.77131373 945.92549902 C187.77448028 946.90750687 187.77764683 947.88951472 187.78090933 948.90128038 C187.34032668 952.13221523 186.31035552 954.0002546 184.40905762 956.62818909 C175.79983462 962.47849995 164.96040582 965.58659866 155.22155762 969.12818909 C153.73370274 969.67575608 152.24607151 970.22393117 150.75866699 970.77272034 C146.31495272 972.40837936 141.86322938 974.02126148 137.40905762 975.62818909 C136.66314362 975.89839874 135.91722961 976.1686084 135.14871216 976.44700623 C126.66322079 979.51509819 118.21519969 982.43140296 109.47155762 984.69068909 C107.77475012 985.1391786 106.0781434 985.58842826 104.38171387 986.03834534 C103.46897705 986.27819153 102.55624023 986.51803772 101.61584473 986.76515198 C99.17587247 987.42181752 96.74404171 988.09577033 94.31359863 988.78614807 C84.01207789 991.70764159 73.68932745 994.31149922 63.22155762 996.56568909 C62.05425613 996.81856689 62.05425613 996.81856689 60.8633728 997.07655334 C43.64284812 1000.781459 26.30828048 1003.52541298 8.87243652 1005.99195862 C4.84285281 1006.56237895 0.81931101 1007.1688017 -3.20422363 1007.78053284 C-35.26138078 1012.52877148 -67.40280739 1013.90360761 -99.77844238 1013.94068909 C-101.03755432 1013.94427429 -102.29666626 1013.9478595 -103.59393311 1013.95155334 C-120.02589465 1013.97678909 -136.24550344 1013.3303394 -152.59094238 1011.62818909 C-153.28851654 1011.55738129 -153.9860907 1011.48657349 -154.70480347 1011.41362 C-182.42492409 1008.55271011 -210.23399856 1002.69783608 -236.59094238 993.62818909 C-238.71371316 992.99565906 -240.83860795 992.37019655 -242.96594238 991.75318909 C-280.72106094 980.12518679 -316.93754863 961.56448162 -347.59094238 936.62818909 C-348.60672363 935.80447815 -349.62250488 934.98076721 -350.66906738 934.13209534 C-363.45172442 923.60915879 -375.90641502 912.29286052 -386.59094238 899.62818909 C-387.36180176 898.73357971 -388.13266113 897.83897034 -388.92687988 896.91725159 C-400.76523121 882.98758267 -411.1916505 868.30449426 -420.59094238 852.62818909 C-421.03180176 851.89374573 -421.47266113 851.15930237 -421.92687988 850.40260315 C-443.58324309 813.89850608 -455.29527801 772.57484741 -461.84094238 730.94068909 C-462.02907501 729.7531604 -462.02907501 729.7531604 -462.2210083 728.54164124 C-465.79934477 705.67856137 -466.94334238 683.07363282 -466.90313721 659.94013977 C-466.90364268 656.62840242 -466.93124733 653.31680359 -466.95227051 650.00514221 C-467.00771642 627.73419702 -465.31429406 605.71473034 -461.15344238 583.81568909 C-460.93663818 582.64667053 -460.71983398 581.47765198 -460.49645996 580.27320862 C-459.05537077 572.66837356 -457.48792903 565.17324799 -455.23352051 557.76197815 C-454.4466589 555.14907144 -453.70132321 552.52506116 -452.95031738 549.90162659 C-439.34678894 503.22732842 -416.5820192 459.87758144 -385.27453613 422.66041565 C-384.0549958 421.18833709 -382.85712705 419.6982164 -381.67297363 418.19752502 C-375.88022763 410.91150246 -369.58072101 404.30958439 -362.98059082 397.75709534 C-361.21814001 396.00537333 -359.4666567 394.24319481 -357.71594238 392.47975159 C-350.97996 385.73560259 -344.07108366 379.54630977 -336.59094238 373.62818909 C-335.34259332 372.58056712 -334.09855196 371.52777301 -332.86047363 370.46803284 C-311.37947021 352.31736982 -286.81708935 337.68587238 -261.49621582 325.55055237 C-259.6124045 324.63857913 -257.74604724 323.69699726 -255.88000488 322.74928284 C-235.29024213 312.46877431 -212.93175745 304.99274507 -190.59094238 299.62818909 C-189.45672852 299.35023499 -188.32251465 299.07228088 -187.15393066 298.78590393 C-161.35069211 292.5103648 -135.10146857 287.63432093 -108.59094238 285.62818909 C-107.51594482 285.5420636 -106.44094727 285.45593811 -105.33337402 285.36720276 C-94.27302821 284.56941431 -83.23826318 284.44202123 -72.1517334 284.44288635 C-69.08509803 284.44072894 -66.0188413 284.42258381 -62.95227051 284.40357971 C-51.01915875 284.37351658 -39.16839176 284.82895533 -27.26696777 285.64259338 C-25.83357922 285.73819075 -24.40017116 285.83349612 -22.96674347 285.92850494 C-19.5079127 286.15838201 -16.04935928 286.3921575 -12.59094238 286.62818909 C-12.59284098 286.03550021 -12.59473959 285.44281134 -12.59669572 284.8321622 C-12.70854361 249.7182442 -12.79435361 214.60435681 -12.84626903 179.49029778 C-12.85252269 175.2757632 -12.85899429 171.06122899 -12.86560059 166.84669495 C-12.86691214 166.00764375 -12.86822369 165.16859255 -12.86957499 164.30411556 C-12.89134194 150.71156545 -12.93077054 137.11912088 -12.97670636 123.52663342 C-13.02343517 109.58339285 -13.0512302 95.64020763 -13.06138486 81.69689196 C-13.06825147 73.09044879 -13.08995229 64.48430391 -13.13052472 55.87795254 C-13.15691899 49.9792633 -13.16495094 44.08072867 -13.15844927 38.18198464 C-13.15524113 34.77668742 -13.16021861 31.37191207 -13.18696976 27.96670723 C-13.21174369 24.276487 -13.205903 20.58755667 -13.19221497 16.89730835 C-13.20677917 15.81851609 -13.22134338 14.73972382 -13.23634893 13.62824088 C-13.18978123 9.0029751 -13.09436779 6.40049068 -10.52779675 2.46313095 C-6.93416123 0.21783329 -4.11522693 -0.06939754 0 0 Z " fill="#FE3265" transform="translate(1367.5909423828125,448.37181091308594)"/>
<path d="M0 0 C0.73014018 -0.00453111 1.46028035 -0.00906223 2.21254599 -0.01373065 C4.65987888 -0.02639403 7.10698978 -0.02475305 9.55435181 -0.02310181 C11.30873399 -0.02908584 13.06311355 -0.0358911 14.81748962 -0.04345703 C19.58404659 -0.06113672 24.35053177 -0.06581323 29.11711836 -0.0670886 C33.09577177 -0.06898727 37.07440844 -0.07634442 41.05305541 -0.08343279 C50.43972663 -0.09972175 59.82635948 -0.10460127 69.21304321 -0.10317993 C78.89699908 -0.10197827 88.58073215 -0.12308388 98.26463163 -0.15466726 C106.57812371 -0.18081528 114.89154296 -0.19154785 123.20507586 -0.19026911 C128.1706752 -0.18975906 133.13607658 -0.19546639 138.10163498 -0.21662521 C142.77204573 -0.23598283 147.44206915 -0.23614907 152.11249352 -0.22159195 C153.82574338 -0.21949969 155.53901734 -0.22422958 157.25222588 -0.23631287 C159.59316659 -0.25175301 161.93276968 -0.24246669 164.27368164 -0.22705078 C165.58296316 -0.22814032 166.89224468 -0.22922985 168.2412014 -0.2303524 C172.44221268 0.36328782 174.5566305 1.51323385 177.76382446 4.26742554 C179.75704031 8.14799931 180.0143017 11.38872014 180.01567346 15.71646065 C180.02093672 17.03056941 180.02619998 18.34467818 180.03162274 19.69860843 C180.02735806 21.15831016 180.0229104 22.61801137 180.01830006 24.07771206 C180.02068925 25.6336648 180.02395401 27.18961641 180.02801666 28.74556568 C180.03666986 33.04248122 180.0327965 37.33930986 180.02696093 41.63622683 C180.02280391 46.30291289 180.03018501 50.9695827 180.03611344 55.63626486 C180.04489482 63.82229317 180.04618069 72.00829646 180.04261017 80.19432831 C180.0373147 92.36705003 180.04338677 104.53974744 180.0516931 116.71246652 C180.06695691 139.71469334 180.06863574 162.71690917 180.06617007 185.71913999 C180.0643395 203.47736363 180.06609205 221.23558365 180.07039452 238.99380684 C180.07099691 241.54246233 180.07159811 244.09111783 180.07219812 246.63977333 C180.07310534 250.48004791 180.07401401 254.3203225 180.07493047 258.16059708 C180.08336358 293.87873463 180.08771188 329.59687085 180.08352375 365.31500912 C180.08340667 366.32518422 180.08340667 366.32518422 180.08328721 367.3557669 C180.08241439 374.865663 180.08148513 382.37555909 180.08053658 389.88545518 C180.08040832 390.90252912 180.08040832 390.90252912 180.08027746 391.94015 C180.07956661 397.57460558 180.07956661 397.57460558 180.07923524 400.16642129 C180.07369867 443.5427898 180.08124315 486.91913704 180.1000061 530.29550171 C180.10472819 541.22563389 180.10940864 552.15576609 180.11384296 563.0858984 C180.11411629 563.75887939 180.11438961 564.43186038 180.11467121 565.12523473 C180.12933011 601.44557457 180.13047855 637.76591455 180.12743062 674.08625704 C180.12703525 679.19324752 180.12667371 684.30023799 180.12633324 689.40722847 C180.1262425 690.66475837 180.12615177 691.92228826 180.12605829 693.21792513 C180.12489058 712.23114936 180.1315538 731.2443607 180.14214516 750.25758171 C180.15417259 771.87122825 180.15578452 793.48484633 180.14335499 815.09849327 C180.13670573 827.20378799 180.13840486 839.30901476 180.1519435 851.4143041 C180.16015092 859.49083667 180.15753905 867.56731801 180.14596824 875.64384636 C180.13967482 880.25182098 180.13820553 884.85966243 180.14983157 889.46762966 C180.16030178 893.65581955 180.1570814 897.84376235 180.14272704 902.03193869 C180.13998816 903.54127878 180.14232438 905.05063835 180.15023419 906.55996021 C180.16022047 908.60429977 180.14998525 910.64870834 180.13872129 912.69304127 C180.13875198 914.39326781 180.13875198 914.39326781 180.13878329 916.12784236 C179.70762316 919.73800695 178.60925604 922.15313197 176.76382446 925.26742554 C173.40794382 927.9063991 169.49460927 927.55312927 165.40029907 927.53485107 C164.65649711 927.53938219 163.91269514 927.5439133 163.14635372 927.54858172 C160.65289548 927.56124662 158.15965507 927.55960403 155.66616821 927.55795288 C153.87898477 927.56393672 152.09180391 927.57074193 150.30462646 927.57830811 C145.4493639 927.59598727 140.5941718 927.60066421 135.73888016 927.60193968 C131.68796384 927.60383788 127.63706397 927.61119428 123.58615398 927.61828387 C114.03176224 927.63457172 104.47740819 927.63945235 94.92300415 927.63803101 C85.05951053 927.63682856 75.19623536 927.65794994 65.33279705 927.68951833 C56.86901918 927.71564401 48.40531284 927.72639991 39.94149494 927.72512019 C34.88429906 927.72460958 29.8272974 927.73034742 24.7701416 927.75147629 C20.01601999 927.77079699 15.26227918 927.77102562 10.50814438 927.75644302 C8.7618034 927.75434633 7.01543895 927.75910679 5.26913834 927.77116394 C2.88809044 927.78654116 0.50836805 927.77735965 -1.87265015 927.76190186 C-2.56642289 927.77218898 -3.26019564 927.78247611 -3.9749918 927.79307497 C-7.22672859 927.74630515 -8.9557223 927.48130707 -11.57139587 925.48652077 C-14.78507171 921.20279909 -15.48640744 918.32311553 -15.4891752 912.9286142 C-15.49745443 910.9561374 -15.49745443 910.9561374 -15.50590092 908.94381258 C-15.50192492 907.47792749 -15.49776598 906.0120429 -15.49344444 904.54615879 C-15.49613626 902.9876579 -15.49970319 901.42915833 -15.50406891 899.87066123 C-15.51356524 895.56201775 -15.51051393 891.25345839 -15.50551337 886.94481066 C-15.50225803 882.26716109 -15.51051982 877.58952993 -15.51733172 872.91188616 C-15.52765999 864.70509124 -15.53047062 856.49831993 -15.52841949 848.29151917 C-15.52537685 836.08795203 -15.53367705 823.88441113 -15.54416875 811.68084909 C-15.56353944 788.62069633 -15.56913809 765.56055244 -15.57028286 742.5003925 C-15.57120087 724.69779977 -15.5753119 706.89521054 -15.58168411 689.09261894 C-15.58347911 683.97386867 -15.58525874 678.8551184 -15.58703387 673.73636812 C-15.58747596 672.46394787 -15.58791806 671.19152762 -15.58837355 669.88054918 C-15.60068672 634.0763191 -15.60858596 598.27209041 -15.607687 562.46785831 C-15.60765544 561.1035367 -15.60762397 559.73921508 -15.60759258 558.37489346 C-15.60744581 552.21490757 -15.60726947 546.05492167 -15.60708481 539.89493577 C-15.60700256 537.14796345 -15.60692227 534.40099113 -15.60684218 531.65401881 C-15.60680139 530.27910901 -15.60675935 528.90419922 -15.60671606 527.52928942 C-15.60535528 484.04395696 -15.61999436 440.55865707 -15.64779663 397.07333374 C-15.65479843 386.11586803 -15.66173725 375.15840229 -15.66832542 364.20093632 C-15.66873117 363.52627942 -15.66913692 362.85162252 -15.66955496 362.15652148 C-15.69131895 325.74876406 -15.6952801 289.34100541 -15.69387019 252.93324178 C-15.69372092 247.81417716 -15.69362351 242.69511253 -15.69356155 237.5760479 C-15.69353825 236.31553778 -15.69351494 235.05502765 -15.69349092 233.75632026 C-15.69342927 213.43508279 -15.70622336 193.11387274 -15.72342608 172.79264343 C-15.74034511 152.38509325 -15.74238573 131.97758334 -15.72920744 111.57003004 C-15.72179352 99.43340468 -15.7255488 87.29690133 -15.74509212 75.16028879 C-15.75703199 67.06411412 -15.75456831 58.96802844 -15.74015112 50.87185797 C-15.73233716 46.25179641 -15.73098142 41.6319721 -15.74706583 37.01192666 C-15.76155383 32.81389658 -15.75783436 28.61630274 -15.73921809 24.41829253 C-15.73575825 22.90428956 -15.73908793 21.39025302 -15.74982051 19.87628413 C-15.76337465 17.82809054 -15.75004221 15.77977121 -15.73527086 13.73158604 C-15.7354473 12.59522627 -15.73562374 11.45886649 -15.73580553 10.28807158 C-15.02675409 6.00131245 -12.92598091 3.48541433 -9.43843651 0.97163963 C-6.25287658 -0.04700268 -3.34243661 0.00856138 0 0 Z " fill="#FE3265" transform="translate(583.2361755371094,523.7325744628906)"/>
<path d="M0 0 C0.8955661 -0.00340393 1.7911322 -0.00680786 2.71383667 -0.01031494 C20.61999743 -0.04919111 36.95699149 2.17255732 54.75 5.3125 C54.75 132.6925 54.75 260.0725 54.75 391.3125 C44.22167646 395.26062133 34.9933717 395.56797247 23.91015625 395.91796875 C22.83636719 395.95535156 21.76257812 395.99273438 20.65625 396.03125 C19.69009766 396.06154297 18.72394531 396.09183594 17.72851562 396.12304688 C14.66931184 396.27566828 14.66931184 396.27566828 11.34448242 396.81958008 C7.63195447 397.32868786 4.07812503 397.4582005 0.33203125 397.48046875 C-0.35872498 397.4846582 -1.0494812 397.48884766 -1.76116943 397.49316406 C-3.98667177 397.50289303 -6.21198001 397.50296006 -8.4375 397.5 C-9.19910431 397.49972809 -9.96070862 397.49945618 -10.74539185 397.49917603 C-22.69025845 397.47954614 -34.41134501 397.00116616 -46.25 395.3125 C-47.04889648 395.20534668 -47.84779297 395.09819336 -48.67089844 394.98779297 C-59.41873979 393.53257677 -69.87342415 391.53402693 -80.25 388.3125 C-81.3644751 387.9729126 -81.3644751 387.9729126 -82.50146484 387.62646484 C-107.39039042 379.90758619 -128.55748476 367.32080897 -147.25 349.3125 C-147.95511719 348.67054688 -148.66023438 348.02859375 -149.38671875 347.3671875 C-184.26735707 314.67985503 -198.70060942 258.98867615 -200.56832886 212.98478699 C-201.45216563 185.26461317 -199.79841349 155.84064775 -191.25 129.3125 C-191.00411133 128.53632324 -190.75822266 127.76014648 -190.50488281 126.96044922 C-184.28318457 107.7606163 -174.97050802 90.93948654 -162.25 75.3125 C-161.76853516 74.71679199 -161.28707031 74.12108398 -160.79101562 73.50732422 C-151.91323628 62.58571778 -142.37219402 52.96784842 -131.25 44.3125 C-130.71697266 43.89242676 -130.18394531 43.47235352 -129.63476562 43.03955078 C-104.06929318 23.01920259 -73.99865605 9.85154808 -42.25 3.3125 C-41.59241699 3.16917236 -40.93483398 3.02584473 -40.25732422 2.87817383 C-26.93533702 0.10370684 -13.5469079 0.01214531 0 0 Z " fill="#49021F" transform="translate(1300.25,895.6875)"/>
</svg>
