<?xml version="1.0" encoding="UTF-8"?>
<svg version="1.1" xmlns="http://www.w3.org/2000/svg" width="2101" height="2049">
<path d="M0 0 C2.41187174 -0.0016509 4.82374321 -0.00373775 7.23561424 -0.0062201 C12.48820501 -0.01061791 17.74078716 -0.01192265 22.99337918 -0.01049176 C30.85694931 -0.00836539 38.72050975 -0.01199135 46.58407839 -0.01670653 C59.98800905 -0.02457041 73.39193704 -0.0276681 86.79586983 -0.02815247 C100.37826225 -0.0286551 113.96065169 -0.03130456 127.54304314 -0.03656006 C128.40120052 -0.03689019 129.25935789 -0.03722033 130.14352004 -0.03756046 C133.63874369 -0.03891049 137.13396734 -0.04027315 140.62919098 -0.04165257 C181.99724061 -0.05794967 223.36528967 -0.06434064 264.73334196 -0.06910044 C285.33671308 -0.0714844 305.94008387 -0.07518804 326.54345474 -0.07913754 C392.64824374 -0.09180204 458.75303272 -0.10258553 524.85782291 -0.10597799 C528.0169096 -0.10614023 531.1759963 -0.10630579 534.33508299 -0.10647238 C540.67057624 -0.10680617 547.00606949 -0.10713665 553.34156275 -0.10746694 C560.75872886 -0.10785383 568.17589497 -0.10824344 575.59306108 -0.108638 C577.71590635 -0.10875042 579.83875162 -0.10886184 581.96159689 -0.10897225 C650.12386363 -0.11252084 718.28611983 -0.12759575 786.44838255 -0.15091 C835.43091501 -0.16765722 884.41344548 -0.18312905 933.39598083 -0.18764496 C934.90779779 -0.18778519 934.90779779 -0.18778519 936.4501565 -0.18792825 C958.57843327 -0.18994755 980.70671001 -0.19110338 1002.83498688 -0.19145683 C1010.75356038 -0.191593 1018.67213389 -0.19180199 1026.5907074 -0.19205009 C1028.56059563 -0.19211165 1030.53048387 -0.19216997 1032.50037211 -0.19222504 C1063.85828769 -0.19314394 1095.21619225 -0.20310116 1126.57410421 -0.21768252 C1158.1716672 -0.23231649 1189.76921667 -0.23732924 1221.36678244 -0.22926298 C1225.73972081 -0.22814771 1230.1126592 -0.22713702 1234.48559761 -0.22618866 C1235.34275887 -0.22599869 1236.19992012 -0.22580872 1237.08305596 -0.225613 C1250.61810763 -0.22288661 1264.1531342 -0.23019794 1277.68818041 -0.24176203 C1291.0196364 -0.25294104 1304.35105714 -0.25329604 1317.68251372 -0.24239184 C1325.48312893 -0.23632922 1333.28363734 -0.23829901 1341.08424232 -0.25264382 C1346.9008013 -0.26240515 1352.71726182 -0.25622336 1358.53381265 -0.24423349 C1360.85357066 -0.24182268 1363.17334107 -0.24430006 1365.49308538 -0.25262997 C1424.45525125 -0.45022412 1482.4820766 14.66631831 1534.56552887 42.13142776 C1535.31834137 42.52378616 1536.07115387 42.91614456 1536.84677887 43.32039261 C1564.32178651 57.71020485 1589.16648455 75.98209751 1612.05381012 96.84236526 C1613.81066354 98.44347896 1615.57999038 100.03096426 1617.35849762 101.60799026 C1629.14762984 112.16681674 1639.71753175 123.74864182 1649.56552887 136.13142776 C1650.44757506 137.18914564 1651.33180944 138.24504143 1652.21787262 139.29939651 C1670.51032246 161.27908428 1685.35852526 186.31641713 1697.56552887 212.13142776 C1697.9167984 212.86587112 1698.26806793 213.60031448 1698.62998199 214.3570137 C1716.35245563 251.63047015 1727.12944179 292.13359119 1731.56552887 333.13142776 C1731.65368962 333.89519039 1731.74185037 334.65895302 1731.83268265 335.44585996 C1732.90878569 346.19075375 1732.70629566 356.97116702 1732.69695663 367.75658894 C1732.69860767 370.08008106 1732.70069458 372.4035729 1732.70317674 374.72706428 C1732.70815178 380.45128572 1732.70849531 386.17549436 1732.70688772 391.89971742 C1732.70521181 398.80761321 1732.70936298 405.71550256 1732.71366317 412.62339678 C1732.72152596 425.53283322 1732.72462468 438.4422669 1732.7251091 451.35170555 C1732.72561178 464.43259185 1732.72826164 477.51347507 1732.73351669 490.59436035 C1732.73384683 491.42090129 1732.73417696 492.24744222 1732.7345171 493.09902985 C1732.73586712 496.46549331 1732.73722979 499.83195676 1732.7386092 503.1984202 C1732.75490519 543.03989817 1732.76129712 582.88137553 1732.76605707 622.72285626 C1732.76844113 642.56601599 1732.77214478 662.40917538 1732.77609417 682.25233485 C1732.78875852 745.91895504 1732.79954207 809.58557522 1732.80293463 873.25219665 C1732.80309687 876.29467657 1732.80326243 879.33715649 1732.80342901 882.37963641 C1732.80376281 888.48126851 1732.80409329 894.5829006 1732.80442357 900.6845327 C1732.80481047 907.82789773 1732.80520007 914.97126275 1732.80559463 922.11462778 C1732.80570705 924.15910854 1732.80581847 926.20358931 1732.80592889 928.24807008 C1732.80947753 993.89512327 1732.82455275 1059.54216551 1732.84786663 1125.18921452 C1732.86461388 1172.36507849 1732.88008568 1219.54094039 1732.88460159 1266.71680737 C1732.88474182 1268.1728618 1732.88474182 1268.1728618 1732.88488488 1269.65833147 C1732.88690418 1290.9704062 1732.88806002 1312.28248089 1732.88841347 1333.59455571 C1732.88854964 1341.22104154 1732.88875863 1348.84752736 1732.88900672 1356.47401318 C1732.88906828 1358.37123724 1732.8891266 1360.26846129 1732.88918167 1362.16568535 C1732.89010056 1392.36659244 1732.90005766 1422.56748809 1732.91463916 1452.76839142 C1732.92927314 1483.19986258 1732.93428586 1513.63131972 1732.92621962 1544.06279378 C1732.92510435 1548.27435558 1732.92409365 1552.4859174 1732.92314529 1556.69747925 C1732.92295533 1557.52300787 1732.92276536 1558.34853649 1732.92256963 1559.19908114 C1732.91984326 1572.23453609 1732.92715451 1585.26996499 1732.93871866 1598.30541428 C1732.94989777 1611.14483078 1732.95025257 1623.98421069 1732.93934848 1636.8236278 C1732.93381327 1643.68282579 1732.93322368 1650.54192863 1732.9458572 1657.40112013 C1732.95728201 1663.65650275 1732.95457842 1669.91172303 1732.94119012 1676.1671003 C1732.93877937 1678.40120361 1732.94125647 1680.6353198 1732.9495866 1682.86940888 C1733.21535388 1759.24428678 1707.16421531 1835.97766585 1661.56552887 1897.13142776 C1661.13965485 1897.70747757 1660.71378082 1898.28352737 1660.27500153 1898.87703323 C1643.91345199 1920.92844717 1624.8772669 1943.1046505 1603.20224762 1960.04939651 C1600.79917512 1961.94693376 1598.49627282 1963.9284103 1596.19736481 1965.94978714 C1574.55270662 1984.83330349 1549.14611035 1999.33651124 1523.56552887 2012.13142776 C1522.76469879 2012.53844925 1521.96386871 2012.94547073 1521.13877106 2013.3648262 C1469.83976801 2039.35196447 1412.0789403 2049.31584432 1355.03464699 2049.26006222 C1352.64906864 2049.26141027 1350.2634905 2049.26319496 1347.87791276 2049.26537445 C1342.69233214 2049.26910846 1337.50676067 2049.26976373 1332.32117952 2049.26766851 C1324.5580185 2049.2645491 1316.7948666 2049.26721574 1309.03170624 2049.27096722 C1295.7977882 2049.27719142 1282.56387343 2049.27867474 1269.32995415 2049.27754974 C1255.92298083 2049.2764244 1242.51601029 2049.27746247 1229.1090374 2049.28112221 C1228.26147144 2049.28135186 1227.41390548 2049.28158151 1226.5406557 2049.28181813 C1223.08849348 2049.28275979 1219.63633127 2049.28371548 1216.18416907 2049.28468932 C1180.1895954 2049.29482827 1144.19502328 2049.29789511 1108.20044835 2049.29848143 C1104.32719331 2049.29854618 1100.45393827 2049.29861412 1096.58068323 2049.29868484 C1095.61949911 2049.29870184 1094.658315 2049.29871884 1093.66800409 2049.29873636 C1072.35865325 2049.299145 1051.04930271 2049.30133549 1029.73995202 2049.30384068 C1020.96265244 2049.30486905 1012.18535286 2049.30585909 1003.40805328 2049.30685693 C1002.4382039 2049.30696752 1001.46835451 2049.30707811 1000.46911575 2049.30719205 C944.89771819 2049.31351545 889.32632081 2049.31764124 833.75492287 2049.31718349 C831.67562626 2049.31716772 829.59632965 2049.31715198 827.51703305 2049.31713629 C818.12940242 2049.3170629 808.74177179 2049.31697473 799.35414116 2049.3168824 C795.16805086 2049.31684128 790.98196055 2049.31680113 786.79587024 2049.31676109 C784.70065736 2049.31674069 782.60544448 2049.31671967 780.5102316 2049.31669803 C714.26726851 2049.31601789 648.02431077 2049.3233336 581.78134918 2049.33723831 C565.09275629 2049.34073943 548.40416339 2049.34420893 531.71557045 2049.34750271 C530.17412706 2049.34780702 530.17412706 2049.34780702 528.6015434 2049.34811748 C496.91985006 2049.35433422 465.23815716 2049.35809838 433.55646324 2049.35936069 C432.56151283 2049.35940065 431.56656242 2049.3594406 430.541462 2049.35948176 C408.69789744 2049.36033511 386.8543329 2049.3605962 365.01076832 2049.36031138 C357.19434188 2049.3602149 349.37791543 2049.36016285 341.56148899 2049.36013265 C339.61701365 2049.36012474 337.67253832 2049.36011453 335.72806298 2049.36010203 C304.76910744 2049.35992584 273.81015649 2049.36561813 242.85120226 2049.37425584 C211.66123842 2049.38291377 180.47128091 2049.3850902 149.28131637 2049.37849452 C144.96622124 2049.3775823 140.65112611 2049.376739 136.33603096 2049.37593651 C135.49019974 2049.37577642 134.64436852 2049.37561633 133.77290605 2049.3754514 C120.40944095 2049.37310339 107.04598685 2049.37744437 93.68252382 2049.3846077 C80.52461971 2049.39151961 67.36673176 2049.39123008 54.20882799 2049.38341556 C46.50693447 2049.37905299 38.8050887 2049.38006046 31.10319919 2049.38928234 C25.36498039 2049.39553193 19.62680649 2049.39119339 13.88859199 2049.38294904 C11.59663529 2049.38124176 9.3046729 2049.38280959 7.01272202 2049.38825025 C-13.76598763 2049.43423197 -34.45956876 2048.29895837 -54.99697113 2045.00642776 C-55.97839081 2044.85019943 -55.97839081 2044.85019943 -56.97963715 2044.69081497 C-92.53661812 2038.96186099 -127.18659891 2028.20181377 -159.43447113 2012.13142776 C-160.47184418 2011.61821976 -161.50921722 2011.10501175 -162.57802582 2010.57625198 C-176.71551089 2003.53748897 -190.33288826 1995.95512105 -203.43447113 1987.13142776 C-204.16069672 1986.64319534 -204.8869223 1986.15496292 -205.63515472 1985.65193558 C-215.69757554 1978.83277436 -225.25428431 1971.48792141 -234.57167816 1963.68562698 C-236.29463349 1962.24809964 -238.03198624 1960.83050475 -239.77431488 1959.41658401 C-247.50645964 1953.05835178 -254.65234416 1946.12271957 -261.74697113 1939.06892776 C-262.66623383 1938.15893021 -263.58549652 1937.24893265 -264.53261566 1936.31135941 C-269.85325462 1930.96620802 -274.78279518 1925.45526818 -279.47524261 1919.5498848 C-281.29883549 1917.29885539 -283.19884772 1915.17689739 -285.18447113 1913.06892776 C-291.58198636 1905.94500144 -296.95061382 1897.96305612 -302.43447113 1890.13142776 C-302.87549164 1889.50494339 -303.31651215 1888.87845901 -303.77089691 1888.23299026 C-339.32724763 1837.41803886 -360.77382043 1777.68479211 -367.43447113 1716.13142776 C-367.56671225 1714.9860556 -367.56671225 1714.9860556 -367.70162492 1713.81754461 C-368.77843356 1703.06738368 -368.57523551 1692.28136936 -368.5658989 1681.49064922 C-368.56754992 1679.16545168 -368.56963683 1676.8402544 -368.572119 1674.51505759 C-368.57709407 1668.78660042 -368.57743756 1663.05815603 -368.57582998 1657.32969723 C-368.57415408 1650.41669728 -368.57830523 1643.50370376 -368.58260543 1636.59070538 C-368.59046824 1623.67172826 -368.59356694 1610.7527539 -368.59405136 1597.83377457 C-368.59455404 1584.74321292 -368.59720389 1571.65265436 -368.60245895 1558.56209373 C-368.60278909 1557.73494286 -368.60311922 1556.90779198 -368.60345936 1556.05557593 C-368.60480938 1552.68662849 -368.60617205 1549.31768105 -368.60755146 1545.94873363 C-368.62384747 1506.07781261 -368.63023938 1466.20689219 -368.63499933 1426.33596842 C-368.63738339 1406.47815543 -368.64108704 1386.62034277 -368.64503643 1366.76253004 C-368.65770078 1303.04893782 -368.66848433 1239.33534562 -368.67187689 1175.62175216 C-368.67203913 1172.57702617 -368.67220469 1169.53230017 -368.67237127 1166.48757418 C-368.67270507 1160.38143733 -368.67303555 1154.27530049 -368.67336583 1148.16916364 C-368.67375273 1141.02052434 -368.67414233 1133.87188504 -368.6745369 1126.72324574 C-368.67464932 1124.67725542 -368.67476073 1122.63126509 -368.67487115 1120.58527476 C-368.67841979 1054.88971914 -368.69349501 989.19417446 -368.71680889 923.49862302 C-368.73355613 876.28791753 -368.74902794 829.07721411 -368.75354385 781.86650562 C-368.75363734 780.89508674 -368.75373083 779.92366785 -368.75382714 778.92281203 C-368.75584644 757.5950238 -368.75700228 736.26723561 -368.75735573 714.9394473 C-368.7574919 707.30733945 -368.75770089 699.67523161 -368.75794898 692.04312377 C-368.75801054 690.14450101 -368.75806886 688.24587825 -368.75812393 686.34725548 C-368.75904283 656.12402577 -368.76899995 625.90080749 -368.78358142 595.67758154 C-368.79821536 565.22363847 -368.80322814 534.76970941 -368.79516188 504.31576345 C-368.79404661 500.10110156 -368.79303592 495.88643965 -368.79208755 491.67177773 C-368.79189759 490.84564136 -368.79170762 490.01950499 -368.79151189 489.16833419 C-368.78878551 476.12322678 -368.79609681 463.07814541 -368.80766092 450.03304366 C-368.81883997 437.18415318 -368.8191949 424.33529926 -368.80829074 411.48640818 C-368.80275549 404.62213501 -368.80216607 397.75795691 -368.81479946 390.89369022 C-368.82622412 384.63370251 -368.82352085 378.373877 -368.81013238 372.11389463 C-368.8077216 369.87812427 -368.81019887 367.64234105 -368.81852886 365.40658491 C-368.89059445 344.6809758 -367.15478987 323.99559716 -363.18447113 303.63142776 C-362.97467621 302.53580521 -362.76488129 301.44018265 -362.54872894 300.31135941 C-355.48280657 264.54076464 -343.44009861 230.38004446 -326.43447113 198.13142776 C-326.04211273 197.37861526 -325.64975433 196.62580276 -325.24550629 195.85017776 C-312.43007871 171.38120176 -296.53361058 148.95704014 -278.43447113 128.13142776 C-277.85697113 127.45338089 -277.27947113 126.77533401 -276.68447113 126.07674026 C-266.64243314 114.37776601 -255.98705821 103.33821569 -244.43447113 93.13142776 C-243.88323578 92.64077835 -243.33200043 92.15012894 -242.76406097 91.64461136 C-216.9453685 68.74513649 -187.61278108 49.87454554 -156.43447113 35.13142776 C-155.70002777 34.78015823 -154.96558441 34.4288887 -154.20888519 34.06697464 C-116.93314983 16.34341745 -76.43355142 5.57297591 -35.43447113 1.13142776 C-34.68009776 1.04326702 -33.9257244 0.95510627 -33.14849123 0.86427398 C-22.13079864 -0.24868953 -11.05983552 -0.00921851 0 0 Z " fill="#330000" transform="translate(368.4344711303711,-0.13142776489257813)"/>
<path d="M0 0 C0.9603791 -0.00794881 1.9207582 -0.01589762 2.9102397 -0.02408731 C6.13123097 -0.04335067 9.35046892 -0.01969073 12.57141113 0.0038147 C14.87928422 -0.00104074 17.18715312 -0.008479 19.49501038 -0.01831055 C25.76573528 -0.03714172 32.03583658 -0.01826718 38.30651283 0.00835371 C44.86384821 0.0309643 51.42115247 0.02276913 57.97851562 0.01885986 C68.99118908 0.01600823 80.00362947 0.0391268 91.01623535 0.07608032 C102.34606357 0.1140883 113.67560575 0.12825537 125.00549316 0.11709595 C138.65986349 0.10368679 152.31404253 0.11027383 165.96839905 0.1353035 C171.18362272 0.14460069 176.39876869 0.14634094 181.61399841 0.14213181 C187.75363399 0.13836867 193.89290181 0.15455299 200.03245354 0.18625259 C202.28792232 0.19474862 204.54342839 0.19643244 206.79890633 0.19087219 C209.87358599 0.18444157 212.94716233 0.2025565 216.02172852 0.22705078 C216.91812656 0.21949213 217.8145246 0.21193349 218.73808622 0.20414579 C222.86000934 0.26239106 224.97231483 0.40830796 228.53316879 2.6572628 C230.50528101 4.74253998 231.44693426 6.15637682 232.3692627 8.84707642 C232.65507706 9.65484528 232.94089142 10.46261414 233.23536682 11.29486084 C233.52737473 12.1715744 233.81938263 13.04828796 234.12023926 13.9515686 C234.60556374 15.34337845 234.60556374 15.34337845 235.10069275 16.76330566 C236.16882443 19.83680199 237.21450756 22.91747328 238.26086426 25.9984436 C239.01477714 28.17855778 239.77042227 30.35807362 240.52770996 32.53701782 C242.09673877 37.05603381 243.65830545 41.57752389 245.21447754 46.10098267 C248.31078541 55.08525829 251.49119934 64.03932325 254.67480469 72.99295044 C256.068419 76.91484872 257.45743745 80.83836865 258.8465271 84.76187134 C264.39286634 100.42705416 269.95260477 116.08748755 275.51086426 131.7484436 C284.17251183 156.15350821 292.82395316 180.56216907 301.46643066 204.97402954 C303.55762924 210.88075933 305.64940745 216.78728375 307.74133301 222.6937561 C308.09296509 223.68657593 308.44459717 224.67939575 308.80688477 225.70230103 C309.87486893 228.71768507 310.94286436 231.73306513 312.01086426 234.7484436 C319.84551331 256.8687004 319.84551331 256.8687004 323.57003784 267.38912964 C331.87428788 290.84555882 340.18821386 314.2985377 348.51086426 337.7484436 C357.17251183 362.15350821 365.82395316 386.56216907 374.46643066 410.97402954 C376.55762924 416.88075933 378.64940745 422.78728375 380.74133301 428.6937561 C381.09296509 429.68657593 381.44459717 430.67939575 381.80688477 431.70230103 C382.87486893 434.71768507 383.94286436 437.73306513 385.01086426 440.7484436 C392.84551331 462.8687004 392.84551331 462.8687004 396.57003784 473.38912964 C404.87428788 496.84555882 413.18821386 520.2985377 421.51086426 543.7484436 C430.17251183 568.15350821 438.82395316 592.56216907 447.46643066 616.97402954 C449.55762924 622.88075933 451.64940745 628.78728375 453.74133301 634.6937561 C454.09296509 635.68657593 454.44459717 636.67939575 454.80688477 637.70230103 C455.87486893 640.71768507 456.94286436 643.73306513 458.01086426 646.7484436 C465.84551331 668.8687004 465.84551331 668.8687004 469.57003784 679.38912964 C477.87428788 702.84555882 486.18821386 726.2985377 494.51086426 749.7484436 C502.8260035 773.17718609 511.13247458 796.60898126 519.42903137 820.04431152 C522.29369911 828.13590987 525.15963184 836.22705982 528.02703857 844.31768799 C529.83765521 849.42701649 531.64655623 854.53693763 533.45129395 859.64834595 C536.38821002 867.96257013 539.32835945 876.2747375 542.3441925 884.56072998 C543.49482571 887.72356347 544.63689612 890.88945598 545.77828979 894.05563354 C546.29969018 895.49365232 546.82560079 896.93004548 547.35647583 898.36459351 C552.39156302 911.9719559 552.39156302 911.9719559 551.51086426 918.7484436 C549.30345745 921.71702517 548.02489053 922.57710151 544.51086426 923.7484436 C541.99288855 923.85033584 539.50231181 923.89625432 536.98406982 923.89561462 C536.21057056 923.89929131 535.4370713 923.902968 534.64013267 923.9067561 C532.04007038 923.91779693 529.44004805 923.92163745 526.83996582 923.92544556 C524.97898227 923.93170989 523.11799997 923.93835666 521.25701904 923.94535828 C516.19490901 923.96277022 511.13280841 923.9733205 506.07067585 923.98156381 C502.90852253 923.9867134 499.74637214 923.99278914 496.58422089 923.99907494 C486.69198734 924.01812729 476.79976127 924.03235852 466.9075129 924.04068691 C455.48592316 924.05046144 444.0645271 924.0767865 432.64300561 924.1171878 C423.81658012 924.14733888 414.99021019 924.16215481 406.1637342 924.16546792 C400.89123683 924.16781947 395.61894637 924.17679373 390.34650421 924.20192909 C385.38557255 924.22519723 380.42498422 924.22944806 375.46401215 924.21916771 C373.64474852 924.21867194 371.82546807 924.22500447 370.0062561 924.23872375 C367.51895757 924.25642949 365.032893 924.24934365 362.54559326 924.2361908 C361.47032737 924.25264466 361.47032737 924.25264466 360.37333894 924.26943094 C354.93777892 924.20022228 351.9013747 922.72212354 347.51086426 919.7484436 C346.10401917 917.82110596 346.10401917 917.82110596 345.34313965 915.76651001 C345.03901154 914.97496521 344.73488342 914.18342041 344.42153931 913.3678894 C344.12101654 912.50347229 343.82049377 911.63905518 343.51086426 910.7484436 C343.17593964 909.83133606 342.84101501 908.91422852 342.49594116 907.96932983 C341.36238731 904.80995149 340.27464537 901.63738968 339.19445801 898.4593811 C338.7859964 897.26867508 338.37753479 896.07796906 337.95669556 894.85118103 C337.07687806 892.28484831 336.19850961 889.71807557 335.32266235 887.15039062 C333.92391374 883.04991448 332.51952799 878.95138306 331.11413574 874.85317993 C329.66214538 870.61846041 328.21038342 866.38366423 326.76045227 862.14823914 C322.6027896 850.00423435 318.41450556 837.87093399 314.21685791 825.74069214 C308.70006113 809.79689916 303.19754465 793.84822859 297.71398926 777.89297485 C297.46838194 777.17835272 297.22277462 776.46373058 296.96972466 775.72745323 C294.56048749 768.71711346 292.15209795 761.70648311 289.74522686 754.69533062 C288.85814345 752.11147269 287.97074765 749.52772212 287.08329582 746.94399071 C286.44473446 745.08449866 285.80660063 743.22485981 285.16847229 741.36521912 C283.15942444 735.5168563 281.13850721 729.67311565 279.0904541 723.83828735 C278.71414352 722.76473999 278.33783295 721.69119263 277.95011902 720.58511353 C277.24622236 718.58038509 276.53967747 716.57658383 275.83003235 714.57388306 C275.52256577 713.69820679 275.21509918 712.82253052 274.89831543 711.9203186 C274.62879562 711.1581604 274.35927582 710.3960022 274.08158875 709.61074829 C273.51086426 707.7484436 273.51086426 707.7484436 273.51086426 705.7484436 C165.60086426 705.7484436 57.69086426 705.7484436 -53.48913574 705.7484436 C-54.14913574 708.7184436 -54.80913574 711.6884436 -55.48913574 714.7484436 C-56.02369336 716.61985376 -56.5863142 718.48366879 -57.18713379 720.33486938 C-57.51401184 721.3489386 -57.84088989 722.36300781 -58.17767334 723.4078064 C-58.53182312 724.4921698 -58.8859729 725.5765332 -59.25085449 726.6937561 C-59.62973816 727.86513123 -60.00862183 729.03650635 -60.39898682 730.24337769 C-61.4373429 733.45097219 -62.47933246 736.65734311 -63.52289963 739.8632431 C-64.62745378 743.25968282 -65.72711236 746.65770687 -66.82727051 750.05557251 C-68.71266211 755.87655094 -70.6008718 761.69660854 -72.49108887 767.51602173 C-76.10580181 778.64486203 -79.71339419 789.77600812 -83.32002258 800.9074707 C-83.5768793 801.70022715 -83.83373602 802.49298359 -84.09837627 803.30976295 C-84.61354063 804.89976439 -85.1286933 806.48976961 -85.64383411 808.07977867 C-87.14719861 812.71954183 -88.65182246 817.35889405 -90.15760994 821.9978714 C-91.1062466 824.92075585 -92.05421736 827.84385604 -93.00208282 830.76699066 C-93.43771592 832.10990899 -93.87363795 833.45273364 -94.30989838 834.7954483 C-96.85247323 842.62139441 -99.35235311 850.45906235 -101.79141903 858.31780815 C-103.46887311 863.71698202 -105.23979276 869.08068285 -107.05163574 874.4359436 C-108.94941568 880.08447402 -110.82336838 885.7326613 -112.55163574 891.4359436 C-114.16451405 896.71760088 -115.79975273 901.990772 -117.48913574 907.2484436 C-117.72640381 908.01503296 -117.96367188 908.78162231 -118.20812988 909.57144165 C-119.64597182 913.99049713 -121.05992314 917.46211486 -124.48913574 920.7484436 C-129.50372677 923.28907912 -133.16177707 924.12428626 -138.86502075 924.12939453 C-139.92838231 924.13641449 -139.92838231 924.13641449 -141.01322591 924.14357626 C-143.37078759 924.15547048 -145.72776194 924.14609142 -148.08532715 924.1366272 C-149.78266233 924.14069532 -151.47999485 924.14603855 -153.17732239 924.15255737 C-157.77427078 924.16620611 -162.37101664 924.16094298 -166.96796846 924.15142012 C-171.78227049 924.14381335 -176.59655543 924.15087173 -181.41085815 924.15557861 C-189.49264636 924.16103215 -197.57435223 924.153854 -205.65612793 924.13955688 C-214.99874987 924.1232201 -224.3411755 924.12852796 -233.68379271 924.1450361 C-241.70944036 924.15864924 -249.73502891 924.1605718 -257.76068437 924.15272009 C-262.5523382 924.14804406 -267.34389974 924.14741706 -272.13554764 924.15732956 C-276.63852574 924.16599482 -281.14125054 924.1599854 -285.64420128 924.14264679 C-287.29658653 924.13868007 -288.94899309 924.13981918 -290.60136986 924.14643478 C-292.8569404 924.15463295 -295.1116992 924.14435054 -297.36721802 924.12939453 C-298.62927881 924.12826345 -299.89133961 924.12713238 -301.19164467 924.12596703 C-304.75587798 923.7179048 -306.64670439 922.89792738 -309.48913574 920.7484436 C-312.30164236 915.12343037 -310.84471761 907.08541772 -309.0748291 901.29507446 C-308.42857146 899.4277852 -307.76236884 897.56730923 -307.07897949 895.71328735 C-306.72046402 894.69364395 -306.36194855 893.67400055 -305.99256897 892.62345886 C-304.82120212 889.30453126 -303.62403403 885.99555817 -302.42663574 882.6859436 C-301.59664269 880.34806429 -300.76854299 878.00951201 -299.94226074 875.6703186 C-298.26619649 870.93252154 -296.58082033 866.19821322 -294.88708496 861.46670532 C-291.83514099 852.9325573 -288.85502452 844.37389739 -285.88076782 835.81243896 C-284.67681152 832.35031771 -283.46752378 828.8900673 -282.25852966 825.42970276 C-277.6416085 812.21200309 -273.06477188 798.98047967 -268.48913574 785.7484436 C-262.71179719 769.04126896 -256.91319868 752.34181707 -251.08239746 735.65322876 C-245.85682068 720.69455943 -240.66751246 705.72351274 -235.48913574 690.7484436 C-229.71179719 674.04126896 -223.91319868 657.34181707 -218.08239746 640.65322876 C-212.85682068 625.69455943 -207.66751246 610.72351274 -202.48913574 595.7484436 C-196.71179719 579.04126896 -190.91319868 562.34181707 -185.08239746 545.65322876 C-179.85682068 530.69455943 -174.66751246 515.72351274 -169.48913574 500.7484436 C-163.71179719 484.04126896 -157.91319868 467.34181707 -152.08239746 450.65322876 C-146.85682068 435.69455943 -141.66751246 420.72351274 -136.48913574 405.7484436 C-130.71179719 389.04126896 -124.91319868 372.34181707 -119.08239746 355.65322876 C-113.85682068 340.69455943 -108.66751246 325.72351274 -103.48913574 310.7484436 C-97.71179719 294.04126896 -91.91319868 277.34181707 -86.08239746 260.65322876 C-80.85682068 245.69455943 -75.66751246 230.72351274 -70.48913574 215.7484436 C-65.31020924 200.77178458 -60.12024871 185.79918858 -54.89395142 170.83898926 C-53.07262017 165.6244004 -51.25394016 160.40888614 -49.43516541 155.19340515 C-47.69844838 150.21361805 -45.96018147 145.23437786 -44.22009277 140.25576782 C-42.21802142 134.5262145 -40.22129815 128.79481677 -38.22741699 123.06240845 C-37.46200599 120.86439472 -36.69499857 118.66693605 -35.92614746 116.47012329 C-31.80206685 104.6833651 -27.8193805 92.86319534 -24.10632324 80.93984985 C-23.61411034 79.37508156 -23.61411034 79.37508156 -23.11195374 77.77870178 C-18.30033401 62.10894728 -15.56713494 45.81399535 -15.34851074 29.4203186 C-15.3291748 28.12609985 -15.30983887 26.8318811 -15.28991699 25.4984436 C-15.26084973 23.4883682 -15.23913117 21.47944716 -15.23864746 19.46914673 C-15.235302 17.49437061 -15.19852477 15.5197412 -15.16101074 13.5453186 C-15.14699219 11.80266724 -15.14699219 11.80266724 -15.13269043 10.02481079 C-13.35757266 0.98760273 -8.1228611 -0.13364664 0 0 Z " fill="#FE9900" transform="translate(742.4891357421875,520.2515563964844)"/>
<path d="M0 0 C0.7512635 -0.00538554 1.50252701 -0.01077108 2.27655607 -0.01631981 C4.79542267 -0.0306342 7.31376632 -0.02348726 9.83265686 -0.01637268 C11.63792342 -0.02207444 13.44318636 -0.02903795 15.2484436 -0.03717041 C20.15339654 -0.05513849 25.05817094 -0.05392657 29.96314692 -0.04822803 C34.05622512 -0.04514141 38.14926877 -0.05122275 42.24234205 -0.05726677 C51.89747613 -0.07132241 61.55252174 -0.0697421 71.20765686 -0.05836487 C81.17225148 -0.04688254 91.13657699 -0.06095892 101.10113615 -0.08776134 C109.65326044 -0.10990436 118.20530018 -0.11655888 126.75745112 -0.11068493 C131.86664526 -0.10731081 136.97566689 -0.1097606 142.08483696 -0.12693596 C146.88904486 -0.14238071 151.69285353 -0.13847704 156.49704552 -0.11963081 C158.26069817 -0.11593807 160.02438023 -0.11907332 161.78800583 -0.1295166 C164.19498931 -0.14268182 166.60064243 -0.13121995 169.00756836 -0.11352539 C169.70621016 -0.1231304 170.40485196 -0.1327354 171.12466472 -0.14263147 C175.8551004 -0.07103448 178.23980773 1.05439054 181.567276 4.38768005 C182.77783482 6.8087977 182.69329758 8.32965876 182.6949265 11.03538781 C182.69945045 12.51734443 182.69945045 12.51734443 182.7040658 14.02923957 C182.70229633 15.12474162 182.70052686 16.22024367 182.69870377 17.34894276 C182.7007564 18.50966518 182.70280903 19.67038761 182.70492387 20.86628345 C182.70963137 24.1123469 182.70981387 27.3583756 182.70814628 30.60444094 C182.70741779 34.12677144 182.71243196 37.64909439 182.7167213 41.17142171 C182.72431782 48.16838603 182.72649519 55.16534273 182.72705035 62.16231075 C182.72796236 70.5386928 182.73462502 78.91506774 182.74139718 87.29144674 C182.75747601 107.53926198 182.76336246 127.78707649 182.76814592 148.03489696 C182.77047985 157.60824538 182.77408225 167.18159319 182.7778413 176.75494113 C182.79067806 209.5079311 182.80139747 242.26092073 182.8048439 275.01391315 C182.80506554 277.07090394 182.80528732 279.12789473 182.80550925 281.18488551 C182.8057299 283.24692165 182.80595038 285.30895778 182.8061707 287.37099391 C182.80661326 291.507985 182.80706038 295.64497608 182.80751038 299.78196716 C182.80767446 301.32057321 182.80767446 301.32057321 182.80784186 302.8902622 C182.81147389 336.16270032 182.82739877 369.43511668 182.85070074 402.70754646 C182.87527635 437.86267819 182.88901567 473.01779747 182.89021182 508.17293805 C182.89038328 512.0293361 182.89059871 515.88573414 182.89084625 519.74213219 C182.89090202 520.69172645 182.89095779 521.64132072 182.89101525 522.61969056 C182.89216764 537.92551612 182.90320554 553.23131939 182.91773331 568.53713741 C182.93207349 583.91071493 182.93534935 599.28426377 182.92729333 614.65784613 C182.92282542 623.79948495 182.92674388 632.94103148 182.94253184 642.08265824 C182.95224437 648.18252754 182.95113947 654.28233182 182.94109561 660.38220045 C182.93567649 663.86208338 182.93507974 667.34178842 182.94760433 670.82165698 C182.9585768 674.56423311 182.95129457 678.3063319 182.9392128 682.04889393 C182.94680799 683.13737248 182.95440319 684.22585104 182.96222854 685.34731379 C182.89768243 694.5290086 182.89768243 694.5290086 179.567276 698.38768005 C175.56153826 700.7176727 171.7739179 700.64340941 167.21084595 700.65510559 C166.47985135 700.6596367 165.74885674 700.66416782 164.99571079 700.66883624 C162.55148363 700.68147504 160.10747944 700.67986023 157.66322327 700.6782074 C155.90869358 700.6841929 154.15416653 700.69099849 152.39964294 700.69856262 C147.63727726 700.7162257 142.87498344 700.72091808 138.11258817 700.72219419 C135.13703174 700.72361595 132.16149358 700.72788598 129.1859417 700.73318863 C118.80482192 700.75168854 108.42375351 700.75985912 98.0426178 700.75828552 C88.36602553 700.7570835 78.6896561 700.77819792 69.01312023 700.80977285 C60.70385424 700.83592015 52.3946611 700.8466535 44.08535427 700.8453747 C39.12312322 700.8448647 34.16109029 700.85056941 29.19890022 700.8717308 C24.53257999 700.89108762 19.86664743 700.89125522 15.20031357 700.87669754 C13.4886754 700.8746053 11.77701313 700.87933506 10.06541634 700.89141846 C7.72671824 700.90685862 5.38935902 700.89757234 3.0506897 700.88215637 C1.742707 700.88324591 0.43472429 700.88433544 -0.91289425 700.88545799 C-5.14391956 700.28710205 -7.20469552 699.16981231 -10.432724 696.38768005 C-14.18775538 690.833363 -13.85127411 685.46883081 -13.80745411 679.01231289 C-13.81151484 677.85541695 -13.81557556 676.69852102 -13.81975934 675.50656763 C-13.82800233 672.28977462 -13.82277923 669.07332541 -13.8119253 665.85655044 C-13.80342208 662.35910547 -13.81230636 658.86169794 -13.81898946 655.36425501 C-13.82829353 649.23271155 -13.82641902 643.10125001 -13.81725693 636.96970749 C-13.80367017 627.85205862 -13.80721817 618.73447281 -13.81421553 609.6168194 C-13.82615172 593.33439978 -13.82104997 577.05201883 -13.80893726 560.76960134 C-13.7984097 546.5213913 -13.79386066 532.27319445 -13.79523277 518.02498055 C-13.7953168 517.0806301 -13.79540083 516.13627966 -13.79548741 515.16331254 C-13.79583965 511.33009856 -13.79622365 507.49688459 -13.79665299 503.66367062 C-13.8006198 467.69098662 -13.78789171 431.71832595 -13.76712643 395.74564862 C-13.74875491 363.76946767 -13.74294436 331.79330908 -13.74839783 299.81712341 C-13.74874426 297.76386318 -13.74909036 295.71060295 -13.74943612 293.65734272 C-13.74960711 292.64226113 -13.74977811 291.62717954 -13.74995428 290.5813379 C-13.7508078 285.4718046 -13.75163158 280.3622713 -13.75242329 275.252738 C-13.75258037 274.24475701 -13.75273745 273.23677602 -13.75289929 272.19825015 C-13.75688704 245.49702426 -13.7514169 218.79580053 -13.74291199 192.09457594 C-13.74200494 189.22238407 -13.74109928 186.3501922 -13.74019676 183.47800033 C-13.73959565 181.57257956 -13.73898703 179.66715878 -13.73837085 177.76173801 C-13.73414535 164.46447929 -13.73357295 151.16722481 -13.73547635 137.86996564 C-13.73791655 120.73673751 -13.73386982 103.60353206 -13.71826635 86.47031014 C-13.71020059 77.40421448 -13.70762598 68.33815659 -13.7129087 59.27205865 C-13.71587692 53.22267884 -13.7116121 47.17333253 -13.70136013 41.12396074 C-13.69571245 37.6730196 -13.69326065 34.22215571 -13.6995267 30.77121388 C-13.70459356 27.05979903 -13.69749913 23.34860531 -13.68719959 19.63720608 C-13.69159608 18.55789264 -13.69599256 17.4785792 -13.70052227 16.3665593 C-13.69525901 15.37926965 -13.68999575 14.39198 -13.68457299 13.37477249 C-13.68421374 12.52586454 -13.68385448 11.6769566 -13.68348433 10.80232417 C-13.30298857 7.13841996 -12.28627648 4.30693563 -9.77226925 1.59941006 C-6.53950953 -0.07494608 -3.55565536 -0.03049007 0 0 Z " fill="#FE9900" transform="translate(1403.4327239990234,747.6123199462891)"/>
<path d="M0 0 C0.99 0.33 1.98 0.66 3 1 C3.78027344 2.85986328 3.78027344 2.85986328 4.359375 5.3203125 C4.58447754 6.23675537 4.80958008 7.15319824 5.04150391 8.09741211 C5.27530762 9.09651611 5.50911133 10.09562012 5.75 11.125 C7.80727322 19.48046264 10.05773209 27.72417295 12.625 35.9375 C14.59116665 42.26154514 16.45431915 48.55966313 18 55 C19.95027254 63.05195507 22.35488275 70.93000537 24.80078125 78.84375 C26.43242528 84.12673651 28.02666293 89.41982449 29.60546875 94.71875 C37.38171588 120.76647161 45.56497959 146.67713853 53.84033203 172.56958008 C54.06366368 173.26849523 54.28699533 173.96741037 54.51709461 174.68750477 C55.56919076 177.97965688 56.62226408 181.2714863 57.67710876 184.5627594 C60.17212443 192.35904876 62.60384798 200.17281092 65 208 C65.72695137 210.33402446 66.45577967 212.66746622 67.1875 215 C69.65870074 222.89183377 72.11115263 230.78948229 74.5625 238.6875 C74.93850342 239.89857422 75.31450684 241.10964844 75.7019043 242.35742188 C77.46338179 248.03427991 79.22022063 253.7124697 80.96484375 259.39453125 C81.29548828 260.46767578 81.62613281 261.54082031 81.96679688 262.64648438 C82.66701473 264.91921416 83.36485825 267.19267659 84.06054688 269.46679688 C88.01418785 282.277664 92.30006079 294.97673676 96.5625 307.6875 C105.81298551 335.27359351 105.81298551 335.27359351 109 346 C109.25273682 346.83668213 109.50547363 347.67336426 109.76586914 348.53540039 C110.4339735 350.75083716 111.09360938 352.96856944 111.75 355.1875 C111.97042969 355.92291016 112.19085937 356.65832031 112.41796875 357.41601562 C114 362.76642566 114 362.76642566 114 365 C40.74 365 -32.52 365 -108 365 C-106.69358778 359.12114501 -105.34540617 353.60523319 -103.42578125 347.94921875 C-103.18112625 347.21690033 -102.93647125 346.48458191 -102.68440247 345.73007202 C-101.89819383 343.38103648 -101.10543064 341.03427398 -100.3125 338.6875 C-99.76580587 337.05731335 -99.21942089 335.42702299 -98.67333984 333.79663086 C-95.8970598 325.52511208 -93.0627412 317.27823144 -90.125 309.0625 C-87.22861499 300.93784363 -84.84097538 292.70923736 -82.52734375 284.40234375 C-80.96698 278.82178451 -79.27132621 273.28657805 -77.5625 267.75 C-75.17951763 260.0119501 -72.947283 252.24733844 -70.8125 244.4375 C-66.70544435 229.50362025 -61.93628094 214.77949088 -57.23117065 200.02624512 C-54.79722756 192.38526062 -52.42534044 184.72571173 -50.0625 177.0625 C-47.88759745 170.01396638 -45.69257635 162.98205943 -43.3125 156 C-41.44743178 150.51319467 -39.83429625 144.9814617 -38.26953125 139.40234375 C-35.1534293 128.39757476 -31.7901057 117.47750421 -28.375 106.5625 C-24.78514422 95.07516804 -21.24731673 83.58962227 -18 72 C-17.38045916 69.8397718 -16.76066585 67.67961599 -16.140625 65.51953125 C-11.09005616 47.69422784 -6.82852351 29.7493079 -2.83447266 11.66088867 C-1.94482791 7.75795627 -0.9831382 3.88031522 0 0 Z " fill="#330000" transform="translate(849,683)"/>
<path d="M0 0 C20.57808932 17.14840777 34.39410088 41.43295198 37.8125 68.125 C38.23279606 73.33102571 38.24684007 78.53863285 38.20361328 83.75854492 C38.18753333 86.05773418 38.20356409 88.35516034 38.22265625 90.65429688 C38.24219338 103.72454811 36.66935101 116.49480133 32.0625 128.8125 C31.80645996 129.5132666 31.55041992 130.2140332 31.28662109 130.93603516 C21.52250889 156.80298701 2.46846615 177.91284823 -22.61279297 189.47387695 C-36.53970225 195.51310569 -50.670705 198.32513921 -65.78491211 198.36523438 C-67.95532639 198.37480305 -70.12473502 198.40579313 -72.29492188 198.4375 C-98.64639551 198.63616314 -122.29868904 189.92884453 -143.1875 174.125 C-143.92355469 173.57457031 -144.65960937 173.02414062 -145.41796875 172.45703125 C-164.65852094 156.90329145 -176.02332441 130.27104423 -178.97161865 106.26695251 C-179.51110823 100.91419247 -179.37340204 95.51163903 -179.37280273 90.13647461 C-179.3749776 87.95992112 -179.39314935 85.78388534 -179.41210938 83.60742188 C-179.51747614 58.01403481 -171.85562542 34.09767401 -154.1875 15.125 C-153.74035645 14.63692871 -153.29321289 14.14885742 -152.83251953 13.64599609 C-114.44807049 -27.92727433 -45.19934746 -34.95508494 0 0 Z " fill="#FE9900" transform="translate(1560.1875,475.875)"/>
</svg>
